<?xml version="1.0" encoding="utf-8"?>
<!-- Generator: Adobe Illustrator 26.3.1, SVG Export Plug-In . SVG Version: 6.00 Build 0)  -->
<svg version="1.1" id="圖層_1" xmlns="http://www.w3.org/2000/svg" xmlns:xlink="http://www.w3.org/1999/xlink" x="0px" y="0px"
	 viewBox="0 0 990 305" style="enable-background:new 0 0 990 305;" xml:space="preserve">
<style type="text/css">
	.st0{fill:#E40000;}
	.st1{fill:#FFFFFF;}
	.st2{fill:#666666;}
	.st3{fill:#3B3A39;}
	.st4{fill:#333231;}
	.st5{fill:#F9CE04;}
	.st6{opacity:0.1;}
	.st7{fill:#919187;}
	.st8{fill:#434242;}
	.st9{fill:#F48D05;}
	.st10{opacity:0.5;}
	.st11{fill:#EFA10E;}
	.st12{fill:#E33329;}
</style>
<g>
	<g>
		<g>
			<g>
				<path class="st0" d="M766.9,96.1L766.9,96.1L766.9,96.1L766.9,96.1c0,0.2,0,0.3-0.1,0.5c0,0,0,0,0,0.1c0,0,0,0,0,0.1
					c-0.1,0.1-0.1,0.3-0.2,0.4l0,0l0,0c-0.1,0.1-0.1,0.2-0.2,0.2h-0.1c0,0,0,0-0.1,0.1c0,0-0.1,0-0.2,0.1c-0.1,0-0.2,0.1-0.2,0.1
					h-0.1l-32.4,7c25.1,4.5,50,10.5,74.3,18l-17.4-35.3c-0.3-0.5-0.2-1.2,0.1-1.7L810.8,55c-14.5-4.5-29.3-8.5-43.9-11.9L766.9,96.1
					L766.9,96.1z"/>
			</g>
			<g>
				<path class="st1" d="M814.7,53.6c-0.2-0.5-0.5-0.9-1-1c-15.5-4.8-31.2-9.1-46.8-12.7v-15c0-0.7-0.5-1.4-1.1-1.6
					c-70.4-18.9-236-24.7-322-18.2c-27.6,2.1-152.1,8-189.9,18.2c-0.7,0.2-1.1,0.8-1.1,1.6v15c-15.6,3.6-31.3,7.9-46.8,12.7
					c-0.5,0.1-0.8,0.5-1,1s-0.1,1,0.2,1.4l21.2,31.8l-18.6,37.7c-0.3,0.6-0.2,1.3,0.2,1.8c0.3,0.4,0.7,0.6,1.2,0.6
					c0.1,0,0.3,0,0.4-0.1c27.9-8.7,56.6-15.6,85.5-20.4h0.1c0.1,0,0.2-0.1,0.3-0.1s0.1-0.1,0.2-0.1c0,0,0.1,0,0.1-0.1
					c0.1,0,0.1-0.1,0.1-0.1s0,0,0.1-0.1s0.2-0.3,0.2-0.4v-0.1c0-0.1,0.1-0.3,0.1-0.5l0,0l0,0l0,0V88.1
					c39.8-7.8,173.1-11.8,213.6-11.8s173.8,4,213.6,11.8v16.8l0,0l0,0l0,0c0,0.2,0,0.3,0.1,0.5v0.1c0.1,0.1,0.1,0.3,0.2,0.4
					c0,0,0,0,0.1,0.1l0.1,0.1c0,0,0.1,0,0.1,0.1c0.1,0.1,0.1,0.1,0.2,0.1s0.2,0.1,0.3,0.1h0.1c28.9,4.8,57.6,11.6,85.5,20.4
					c0.1,0,0.3,0.1,0.4,0.1c0.4,0,0.9-0.2,1.2-0.6c0.4-0.5,0.5-1.2,0.2-1.8l-18.6-37.7L814.6,55C814.8,54.6,814.9,54.1,814.7,53.6z
					 M790.3,85.7c-0.3,0.5-0.4,1.1-0.1,1.7l17.4,35.3c-24.3-7.5-49.2-13.5-74.3-18l32.4-7h0.1c0.1,0,0.2-0.1,0.2-0.1s0.1,0,0.2-0.1
					c0,0,0,0,0.1-0.1h0.1c0.1-0.1,0.2-0.1,0.2-0.2l0,0l0,0c0.1-0.1,0.2-0.3,0.2-0.4c0,0,0,0,0-0.1c0,0,0,0,0-0.1s0.1-0.3,0.1-0.4
					l0,0l0,0l0,0v-53c14.6,3.4,29.4,7.4,43.9,11.9L790.3,85.7z M229.4,87.4c0.3-0.5,0.2-1.2-0.1-1.7L208.8,55
					c14.6-4.5,29.3-8.5,43.9-11.9v53l0,0l0,0c0,0.1,0,0.2,0.1,0.3c0,0.1,0,0.2,0,0.2c0,0.1,0.1,0.2,0.1,0.2c0,0.1,0.1,0.2,0.1,0.2
					c0.1,0.1,0.2,0.1,0.2,0.2c0.1,0,0.1,0.1,0.2,0.1c0.1,0.1,0.3,0.2,0.5,0.2l32.4,7c-25.1,4.5-50,10.5-74.3,18L229.4,87.4z
					 M293.2,102.9l-31.7-6.8l31.7-7.4V102.9z M294.4,85.1c-3.3,0.7-6.8,1.4-10.2,2.1c-2.4,0.5-4.9,1.1-7.3,1.6
					c-0.7,0.2-1.4,0.3-2.1,0.5c-1.8,0.4-3.5,0.8-5.3,1.3c-0.9,0.2-1.7,0.4-2.6,0.6c-1.6,0.4-3.2,0.8-4.8,1.2c-1,0.2-2,0.5-2.9,0.8
					c-1.1,0.3-2.3,0.6-3.4,0.9V41.2v-15C292.9,16.3,416.9,10.5,444,8.4C529.3,2,694.2,7.6,763.9,26.2v15v52.9
					c-9.5-2.5-19.1-4.8-28.5-6.8c-3.4-0.7-6.9-1.5-10.2-2.1c-40.3-8-174.3-12.1-215.4-12.1C468.7,73,334.8,77.1,294.4,85.1z
					 M726.4,102.9V88.7l31.7,7.4L726.4,102.9z"/>
				<path class="st1" d="M810.6,127.3c-0.2,0-0.4,0-0.6-0.1c-27.9-8.7-56.6-15.6-85.4-20.4l-0.2-0.1c-0.1,0-0.2-0.1-0.3-0.1
					s-0.2-0.1-0.3-0.2c0,0-0.1,0-0.1-0.1c-0.1,0-0.1-0.1-0.1-0.2l-0.1-0.1c-0.1-0.2-0.2-0.3-0.3-0.5v-0.1c-0.1-0.2-0.1-0.4-0.1-0.6
					V88.2C683.7,80.6,554.4,76.5,510,76.5s-173.7,4.1-213.1,11.7v16.6c0,0.1,0,0.3-0.1,0.5v0.1c-0.1,0.2-0.2,0.4-0.3,0.5l-0.1,0.1
					c-0.1,0.1-0.1,0.2-0.2,0.2l-0.2,0.1c-0.1,0.1-0.2,0.1-0.3,0.2c-0.1,0.1-0.2,0.1-0.3,0.1c0,0-0.1,0-0.2,0.1
					c-28.8,4.8-57.6,11.6-85.4,20.4c-0.8,0.2-1.6,0-2.1-0.7c-0.5-0.6-0.6-1.5-0.2-2.2L226,86.7l-21-31.6c-0.4-0.5-0.5-1.2-0.2-1.8
					c0.2-0.6,0.7-1.1,1.3-1.3c15.4-4.8,31-9,46.5-12.6V24.8c0-0.9,0.6-1.8,1.5-2c31-8.3,119.2-13.7,166.5-16.7
					c10.3-0.6,18.5-1.1,23.5-1.5C534-2.2,697.8,4.4,766.3,22.8c0.9,0.2,1.5,1.1,1.5,2v14.6C783.3,43,799,47.2,814.3,52
					c0.6,0.2,1.1,0.7,1.3,1.3l0,0c0.2,0.6,0.1,1.3-0.2,1.8l-21,31.6l18.5,37.5c0.4,0.7,0.3,1.6-0.2,2.2
					C811.8,127,811.2,127.3,810.6,127.3z M723.8,104.8L723.8,104.8c0,0.2,0,0.3,0.1,0.4c0.1,0.2,0.1,0.3,0.2,0.4l0.1,0.1
					c0.1,0.1,0.1,0.1,0.1,0.1c0.1,0,0.1,0.1,0.2,0.1s0.1,0,0.2,0.1h0.1c28.8,4.8,57.6,11.6,85.5,20.4c0.4,0.1,0.8,0,1.1-0.4
					s0.3-0.9,0.1-1.3l-18.7-38l0.1-0.2l21.2-31.8c0.2-0.3,0.3-0.7,0.1-1.1l0,0c-0.1-0.3-0.4-0.6-0.7-0.7
					c-15.4-4.8-31.2-9.1-46.8-12.7l-0.4-0.1V24.8c0-0.5-0.3-1-0.8-1.1C697.1,5.4,533.5-1.2,443.6,5.6c-5,0.4-13.2,0.9-23.5,1.5
					c-47.3,2.9-135.4,8.3-166.4,16.6c-0.5,0.1-0.8,0.6-0.8,1.1v15.3l-0.4,0.1c-15.6,3.6-31.3,7.9-46.8,12.7
					c-0.3,0.1-0.6,0.4-0.7,0.7c-0.1,0.4-0.1,0.7,0.1,1.1l21.3,32l-18.7,38c-0.2,0.4-0.2,0.9,0.1,1.3c0.3,0.3,0.7,0.5,1.1,0.4
					c27.9-8.7,56.7-15.6,85.6-20.4c0,0,0,0,0.1,0s0.1,0,0.2-0.1c0.1,0,0.1-0.1,0.2-0.1l0.2-0.2c0.1-0.1,0.2-0.2,0.2-0.3
					c0.1-0.2,0.1-0.3,0.1-0.4v-0.1V87.6l0.4-0.1c41.3-8.1,177.9-11.8,213.7-11.8S682,79.4,723.3,87.5l0.4,0.1L723.8,104.8
					L723.8,104.8z M808.5,123.4l-1-0.3c-24.2-7.4-49.2-13.5-74.3-18l-2.3-0.4l34.7-7.5c0.1,0,0.2-0.1,0.2-0.1l0.3-0.1
					c0,0,0-0.1,0.1-0.1l0,0c0.1-0.1,0.1-0.2,0.1-0.3v-0.1c0-0.1,0.1-0.2,0.1-0.3v-0.1V42.6l0.6,0.1c14.6,3.4,29.4,7.4,43.9,11.9
					l0.6,0.2l-20.8,31.3c-0.2,0.4-0.3,0.8-0.1,1.2L808.5,123.4z M735.7,104.6c23.9,4.4,47.8,10.2,71.1,17.3l-16.9-34.3
					c-0.3-0.7-0.3-1.5,0.1-2.1l0,0l20.2-30.2c-14.1-4.3-28.5-8.2-42.7-11.6v52.5c0,0.2,0,0.3-0.1,0.5l-0.1,0.2
					c-0.1,0.2-0.2,0.3-0.3,0.5l-0.1,0.1c0,0.1-0.1,0.2-0.2,0.2l-0.1,0.1c-0.1,0.1-0.2,0.1-0.2,0.1c-0.1,0.1-0.2,0.1-0.3,0.1H766
					L735.7,104.6z M211.1,123.4L229,87.2c0.2-0.4,0.2-0.9-0.1-1.2l-20.8-31.3l0.6-0.2C223.3,50,238,46,252.6,42.6l0.6-0.1v53.6
					c0,0,0,0,0,0.1l0.2,0.6c0,0.1,0.1,0.1,0.1,0.1c0.1,0.1,0.1,0.1,0.2,0.1c0.1,0.1,0.2,0.1,0.4,0.2l34.7,7.5l-2.3,0.4
					c-25,4.5-50,10.5-74.3,18L211.1,123.4z M229.8,87.6l-16.9,34.3c23.2-7.1,47.1-12.9,71.1-17.3l-30.1-6.5c-0.2,0-0.4-0.1-0.6-0.3
					c-0.1-0.1-0.1-0.1-0.2-0.1l-0.1-0.1c-0.1-0.1-0.2-0.1-0.2-0.2c-0.1-0.1-0.1-0.2-0.1-0.2l-0.1-0.1c0-0.1-0.1-0.2-0.1-0.3
					s0-0.2-0.1-0.2v-0.1c0-0.1,0-0.1,0-0.2v-0.1l0,0V43.8c-14.2,3.3-28.6,7.2-42.7,11.6l20.2,30.2C230.1,86.1,230.1,86.9,229.8,87.6
					L229.8,87.6z M726,103.4V88l34.2,8L726,103.4z M726.9,89.2v13.1L756,96L726.9,89.2z M293.6,103.4L259.4,96l34.2-8V103.4z
					 M263.6,96l29.1,6.3V89.2L263.6,96z M255.3,94.6V25.7l0.3-0.1C285.9,17.5,373.2,12.2,420,9.3c10.5-0.6,18.9-1.1,23.9-1.5
					c89.4-6.7,252-0.3,320.1,17.8l0.3,0.1v68.9l-0.6-0.2c-9.5-2.5-19-4.8-28.4-6.8c-3.5-0.8-6.9-1.5-10.2-2.1
					c-39.5-7.9-170.5-12.1-215.3-12.1S334,77.6,294.5,85.5l0,0c-3.3,0.7-6.8,1.4-10.2,2.1c-2.4,0.5-4.9,1.1-7.3,1.6l-2,0.5
					c-1.8,0.4-3.5,0.8-5.3,1.3c-0.5,0.1-1.1,0.3-1.6,0.4l-1,0.3c-1.6,0.4-3.2,0.8-4.8,1.2c-0.7,0.2-1.3,0.3-2,0.5l-2.1,0.6
					c-0.7,0.2-1.5,0.4-2.2,0.6H255.3z M256.2,26.5v67c0.6-0.1,1.1-0.3,1.7-0.4l2.1-0.6c0.7-0.2,1.3-0.3,2-0.5
					c1.6-0.4,3.1-0.8,4.7-1.2l1.1-0.3c0.5-0.1,1.1-0.3,1.6-0.4c1.8-0.4,3.6-0.8,5.3-1.3l2.1-0.5c2.5-0.6,4.9-1.1,7.4-1.6
					c3.4-0.7,6.9-1.5,10.2-2.1l0,0c39.5-7.9,170.6-12.1,215.5-12.1s176,4.2,215.5,12.1c3.3,0.7,6.7,1.4,10.2,2.1
					c9.2,2,18.6,4.2,27.9,6.7v-67C695.4,8.4,533.2,2,444.1,8.7c-5,0.4-13.4,0.9-23.9,1.5C373.4,13.2,286.7,18.5,256.2,26.5z"/>
			</g>
			<g>
				<polygon class="st2" points="726.4,88.7 726.4,102.9 758.1,96 				"/>
			</g>
			<g>
				<path class="st0" d="M735.4,87.2c9.4,2,18.9,4.3,28.5,6.8V41.1v-15C694.1,7.5,529.2,1.9,444,8.3c-27.2,2.1-151.1,7.9-188.2,17.8
					v15V94c1.1-0.3,2.3-0.6,3.4-0.9c1-0.3,2-0.5,2.9-0.8c1.6-0.4,3.2-0.8,4.8-1.2c0.9-0.2,1.7-0.4,2.6-0.6c1.8-0.4,3.6-0.8,5.3-1.3
					c0.7-0.2,1.4-0.3,2.1-0.5c2.5-0.6,4.9-1.1,7.3-1.6c3.4-0.7,6.9-1.5,10.2-2.1c40.3-8,174.3-12.1,215.4-12.1S684.8,77,725.2,85
					C728.5,85.7,732,86.5,735.4,87.2z"/>
			</g>
			<g>
				<path class="st0" d="M253.9,97.7c-0.2,0-0.3-0.1-0.5-0.2c-0.1,0-0.1-0.1-0.2-0.1c-0.1-0.1-0.2-0.1-0.2-0.2
					c-0.1-0.1-0.1-0.1-0.1-0.2s-0.1-0.2-0.1-0.2c0-0.1,0-0.2,0-0.2c0-0.1-0.1-0.2-0.1-0.3l0,0l0,0v-53c-14.6,3.4-29.3,7.4-43.9,11.9
					l20.5,30.7c0.3,0.5,0.4,1.1,0.1,1.7L212,122.9c24.3-7.5,49.2-13.5,74.3-18L253.9,97.7z"/>
			</g>
			<g>
				<polygon class="st2" points="261.5,96 293.2,102.9 293.2,88.7 				"/>
			</g>
		</g>
		<g>
			<g>
				<path class="st1" d="M665.6,46.3c2-0.6,3.9-1.5,5.9-1.9c3-0.6,5.6,0.7,7.1,3.2c2.2,3.8,3.9,7.8,4.4,12.2c0.2,2,0,3.9-1.8,5.1
					c-2.2,1.4-4.6,1.7-6.8,0c-1-0.8-2.1-1.6-2.8-2.7c-1.8-2.8-4.1-3.7-7.2-2.9c-1,0.3-2,0.3-3,0.4c-3.4,0.1-5.5-2.6-4.6-6
					c0.7-2.8,2.7-4.5,5.1-5.7c1.2-0.6,2.5-1.1,3.7-1.6C665.7,46.4,665.7,46.3,665.6,46.3z"/>
			</g>
			<g>
				<path class="st1" d="M677.7,31.5c1.1,2.5-0.7,8.2-2.9,9.7c-2.1,1.4-5.5-0.2-6-2.7c-0.6-3,1-6.8,3.6-8.4
					C674.5,28.6,676.7,29.2,677.7,31.5z"/>
			</g>
			<g>
				<path class="st1" d="M687.3,36c1,2.2,0.5,4-0.1,5.7c-0.4,1-1,1.9-1.5,2.9c-0.8,1.5-2,2.1-3.6,1.8c-1.8-0.3-3.3-1.5-3.6-3.1
					c-0.6-3.1,1.2-7.1,4.1-8.7C684.6,33.4,686.5,34.2,687.3,36z"/>
			</g>
			<g>
				<path class="st1" d="M665.4,36.1c0.2,1,0.5,2.1,0.6,3.1c0.3,2.5-0.7,3.8-2.9,4c-2.7,0.2-5-1.5-5.1-3.8s0.9-4.1,2.7-5.5
					c1.6-1.2,3-0.9,4,1c0.2,0.4,0.4,0.8,0.5,1.2C665.3,36.1,665.3,36.1,665.4,36.1z"/>
			</g>
			<g>
				<path class="st1" d="M684.4,53.7c-1.2-2.9,1.1-6.6,4.1-6.8c2-0.1,3.3,1.1,3.1,3.1c-0.2,1.4-0.5,2.9-1.2,4c-0.6,1-2,2-3,2
					c-1.1,0-2.2-1.2-3.2-1.9C684.2,54,684.3,53.9,684.4,53.7z"/>
			</g>
		</g>
		<g id="g7SFRH_00000018934041769049612680000005632663387818960558_">
			<g>
				<path class="st1" d="M346.7,47.4c0.6,0.3,1.8,0.7,2.9,1.4c0.9,0.6,1.7,1.5,2.6,2.2c2,1.7,4.2,3.1,6.7,3.9c1.4,0.4,2.3,1.5,2.4,3
					c0.1,1.6-0.8,2.6-2.1,3.4c-2,1.3-4.3,1.9-6.7,2.4c-2.4,0.4-4.5,1.4-6.6,2.6c-1.4,0.8-2.9,1.4-4.4,1.8c-1.6,0.5-3-0.2-4.1-1.5
					c-1-1.2-1.4-2.7-0.7-4.2c0.4-0.9,1-1.9,1.6-2.7c1.7-2.1,2.7-4.4,3.3-7c0.3-1.1,0.7-2.2,1.2-3.3
					C343.5,48.1,344.6,47.4,346.7,47.4z"/>
			</g>
			<g>
				<path class="st1" d="M360.8,45c-0.1,0.5-0.1,1.1-0.2,1.8c-0.4,2.1-2.6,3.2-4.5,2.2c-2.4-1.2-4-4.8-3.1-7.6
					c0.5-1.6,1.4-3.2,2.3-4.6c1.1-1.6,2.4-1.4,3.4,0.2C360,39.4,360.7,42,360.8,45z"/>
			</g>
			<g>
				<path class="st1" d="M349.2,36.3c-0.3,1.2-0.6,2.5-1.1,3.7c-0.6,1.2-1.8,1.5-3,1c-2.4-1.2-4.7-5.4-4.4-8.1
					c0.1-0.4,0.2-0.9,0.3-1.3c1.2-2.6,3.3-3,5.4-1.2C348.1,31.7,349,33.9,349.2,36.3z"/>
			</g>
			<g>
				<path class="st1" d="M337.2,54.8c0,1.7-1.1,2.8-2.5,2.7c-0.7,0-1.5-0.2-2.1-0.5c-2.5-1.3-4.4-3.3-5.5-5.9
					c-0.4-1-0.4-2.1,0.4-2.9c0.8-0.8,1.8-1.1,2.8-0.6c1.4,0.8,2.8,1.7,4,2.8c1,0.9,1.7,2,2.4,3.1C337,53.9,337.1,54.5,337.2,54.8z"
					/>
			</g>
			<g>
				<path class="st1" d="M329.7,36.8c0.2-2.3,2.5-3.7,4.5-2.6c2.7,1.5,4.4,3.9,4.9,6.9c0.2,1.1-0.1,2.1-1,2.8
					c-1,0.8-1.9,0.8-2.8-0.1c-1.5-1.5-3-3-4.4-4.6C330.3,38.6,330.1,37.7,329.7,36.8z"/>
			</g>
			<g>
				<path class="st1" d="M340.2,22.4c1.2,1,2.5,1.8,3.1,3.3c0.4,0.8-0.3,1.6-1.5,2.1c-1,0.4-1.2-0.3-1.4-1c-0.3-1.4-0.4-2.8-0.6-4.2
					C340,22.5,340.1,22.4,340.2,22.4z"/>
			</g>
			<g>
				<path class="st1" d="M330.5,27.3c0.5,1,1,1.9,1.4,3c0.3,0.9-0.3,1.7-1.1,1.8c-1.1,0.1-1.4-0.7-1.3-1.4c0.1-1.1,0.4-2.2,0.6-3.2
					C330.3,27.3,330.4,27.3,330.5,27.3z"/>
			</g>
			<g>
				<path class="st1" d="M324.8,41.5c0.7,1,1.4,2,1.9,3.1c0.4,0.8,0,1.5-0.8,1.7c-0.3,0.1-1-0.6-1.1-1c-0.3-1.1-0.4-2.3-0.6-3.5
					C324.5,41.6,324.7,41.6,324.8,41.5z"/>
			</g>
			<g>
				<path class="st1" d="M355.8,30.4c0.4,0.7,0.9,1.3,1.3,2c0.1,0.3-0.1,0.8-0.2,1.1c-0.4-0.1-1.1-0.2-1.2-0.4
					c-0.2-0.8-0.2-1.7-0.3-2.6C355.5,30.5,355.7,30.4,355.8,30.4z"/>
			</g>
		</g>
	</g>
	<g>
		<g>
			<path class="st0" d="M146.8,252.9c7.9-0.5,9-4.2,9-19.7c1.8,1.1,4.4,2.1,6.4,2.5c-0.4,17-2.3,22.5-15.2,23.3
				c-12,0.7-24,1.5-36,2.3c-13.6,0.9-17.9-1.6-18.7-13.6c-0.5-7.4-1-14.8-1.6-22.2c-14.6,3-29.3,6-43.9,9.1c-0.5-1.9-1-3.8-1.5-5.8
				c15-3.2,29.9-6.3,44.9-9.4c-0.6-7.9-1.1-15.7-1.7-23.6c-13.4,2.9-26.9,5.8-40.3,8.7c-0.5-1.9-1-3.8-1.5-5.8
				c13.8-3.1,27.6-6.1,41.4-9.1c-0.5-7.6-1.1-15.1-1.6-22.7c-13.7,3.6-28,6.7-41.5,9.6c-0.3-1.5-1.2-3.8-2.1-5.2
				c32.4-7,70.4-16.6,89.7-26.1c2,1.5,4,3,6,4.4c-11.9,5.6-28.3,10.9-45.9,15.5c0.5,7.7,1.1,15.5,1.6,23.2
				c17.1-3.6,34.2-7.1,51.3-10.5c0.5,1.9,0.9,3.8,1.4,5.6c-17.4,3.5-34.9,7.2-52.3,10.9c0.6,7.9,1.1,15.8,1.7,23.7
				c20.1-4.1,40.2-8.1,60.4-12c0.4,1.9,0.8,3.9,1.1,5.8c-20.4,4-40.8,8-61.1,12.2c0.5,7.7,1.1,15.4,1.6,23.1
				c0.5,6.7,2.6,8.4,11.9,7.8C122.6,254.4,134.7,253.6,146.8,252.9z"/>
			<path class="st0" d="M106.5,262c-10.7,0-14-3.6-14.8-14.2l-1.5-21.6c-14.4,2.9-28.9,6-43.3,9l-0.5,0.1l-1.8-6.7l0.5-0.1
				c14.7-3.1,29.7-6.2,44.5-9.3L88,196.6c-13.2,2.8-26.5,5.7-39.7,8.6l-0.5,0.1l-1.8-6.7l0.5-0.1c13.6-3,27.4-6.1,40.9-9l-1.5-21.7
				c-13.5,3.5-27.6,6.6-40.9,9.5l-0.5,0.1l-0.1-0.5c-0.2-1.4-1.1-3.6-2.1-5l-0.4-0.6l0.7-0.2c29.7-6.4,69.4-16.2,89.6-26.1l0.3-0.1
				l6.9,5.1l-0.8,0.4c-11.1,5.2-26.8,10.5-45.5,15.5l1.6,22.2c16.8-3.5,33.9-7,50.7-10.4l0.5-0.1l1.6,6.6l-0.5,0.1
				c-17.3,3.5-34.7,7.1-51.8,10.8l1.6,22.7c19.8-4,40-8,59.9-11.9l0.5-0.1l1.3,6.8l-0.5,0.1c-20.1,3.9-40.6,8-60.7,12.1l1.6,22.6
				c0.4,6.2,2,8,11.4,7.3c12-0.8,24.2-1.6,36.3-2.4l0,0c7.3-0.4,8.6-3.3,8.5-19.2v-0.9l0.8,0.5c1.7,1,4.3,2,6.3,2.4l0.4,0.1v0.4
				c-0.5,17.4-2.7,23-15.7,23.8c-11.9,0.7-24.1,1.5-36,2.3C109.4,261.9,107.9,262,106.5,262z M91.2,225l1.6,22.7
				c0.8,11.3,4.5,14,18.2,13.1c11.9-0.8,24.1-1.6,36-2.3c12.2-0.8,14.3-5.7,14.7-22.4c-1.8-0.4-3.8-1.2-5.4-2
				c0,15-1.3,18.8-9.5,19.3c-12.1,0.7-24.3,1.5-36.3,2.4c-9.4,0.6-11.9-1.1-12.5-8.2l-1.6-23.5l0.4-0.1c20.1-4.1,40.5-8.2,60.6-12.1
				l-0.9-4.8c-19.9,3.8-40.1,7.8-59.9,11.9l-0.6,0.1l-1.7-24.7l0.4-0.1c17.1-3.6,34.5-7.2,51.8-10.7l-1.2-4.7
				c-16.9,3.4-34,6.9-50.8,10.4l-0.6,0.1l-1.7-24.2l0.4-0.1c18.4-4.8,33.9-10.1,45-15.2l-5.1-3.8c-20.2,9.9-59.3,19.5-88.9,25.9
				c0.8,1.3,1.4,2.9,1.7,4.2c13.3-2.9,27.5-6,41-9.5l0.6-0.2l1.7,23.7l-0.4,0.1c-13.5,2.9-27.3,5.9-40.9,9l1.3,4.8
				c13.2-2.9,26.6-5.8,39.8-8.6l0.6-0.1l1.7,24.6l-0.4,0.1c-14.8,3-29.7,6.1-44.4,9.2l1.2,4.8c14.4-3.1,29-6.1,43.4-9L91.2,225z"/>
		</g>
		<g>
			<path class="st0" d="M228,176.3c-1.8,4.5-3.4,9.3-5.2,13.1c6.2-0.3,12.5-0.6,18.7-0.9c0.1,1.7,0.2,3.5,0.2,5.2
				c-20.5,0.9-41,2-61.5,3.1c-0.1-1.7-0.2-3.5-0.3-5.2c5.5-0.3,11-0.6,16.4-0.9c-0.9-3.7-3.1-9.2-5.1-13.1c1.2-0.3,2.3-0.6,3.5-1
				c-4.2,0.2-8.4,0.5-12.7,0.7c-0.1-1.7-0.2-3.4-0.3-5.1c9-0.5,18-1,27-1.4c-1.6-2.9-4-6.2-6.1-8.8c1.7-0.5,3.4-1,5.1-1.4
				c2.8,2.9,5.6,6.9,7.4,9.9c7.6-0.4,15.2-0.7,22.8-1.1c0.1,1.7,0.2,3.4,0.2,5.1c-4.8,0.2-9.6,0.4-14.4,0.7
				C225.3,175.6,226.6,175.9,228,176.3z M235.3,249.2c0.2,3.5-0.5,5.1-3,6.3c-2.7,1-7.2,1.3-14.4,1.6c-0.3-1.5-1.4-3.6-2.2-5.1
				c5.7-0.2,10.5-0.4,11.9-0.5c1.6-0.2,1.9-0.6,1.9-1.9c-0.3-5.4-0.5-10.8-0.8-16.2c-10.4,4.1-20.9,8.5-29.4,11.5
				c-0.9-1.6-1.8-3.1-2.7-4.7c8.4-2.5,19.9-6.8,31.9-11.1c-0.4-7.4-0.7-14.9-1.1-22.3c-11,0.5-21.9,1.1-32.9,1.7
				c0.3,5.6,0.6,11.3,0.9,16.9c0.6,10.4,0.1,24.5-5.9,35.1c-1-1.2-3.2-3-4.4-3.7c5.2-9.5,5.3-21.8,4.8-31.3
				c-0.4-7.2-0.8-14.5-1.2-21.7c14.8-0.8,29.6-1.6,44.4-2.2C233.9,217.5,234.6,233.4,235.3,249.2z M187.2,168.8
				c-2,0.1-4,0.2-5.9,0.3c-0.3-6.1-0.7-12.1-1-18.2c18.2-1,36.5-1.9,54.7-2.8c-1.6-2.9-3.9-6.1-6.1-8.6c2-0.6,3.9-1.1,5.9-1.7
				c2.9,2.9,5.6,6.8,7.5,9.9c16.7-0.8,33.4-1.4,50.1-2c0.2,6.1,0.4,12.1,0.7,18.2c-2,0.1-4.1,0.1-6.1,0.2c-0.2-4.2-0.3-8.4-0.5-12.6
				c-33.3,1.3-66.6,2.8-99.9,4.6C186.8,160.4,187,164.6,187.2,168.8z M200.1,215.1c7.9,1.3,18,3.5,23.6,5.3
				c-0.5,1.4-0.9,2.8-1.4,4.2c-5.7-1.7-15.9-4.3-23.9-5.8C199,217.6,199.6,216.3,200.1,215.1z M196.8,176.6
				c2.3,4.2,4.6,9.8,5.3,13.3c-0.8,0.3-1.6,0.5-2.3,0.8c5.7-0.3,11.5-0.6,17.2-0.9c1.8-4.3,4-10.3,5.1-14.4
				C213.7,175.7,205.2,176.1,196.8,176.6z M288.7,248.3c4.4-0.2,5.2-1.6,5.4-10c1.5,0.9,3.7,1.6,5.6,2c-0.5,10.2-2.3,13.1-10.3,13.4
				c-8.4,0.3-16.7,0.7-25.1,1c-10.3,0.4-13.3-1.2-13.7-9.2c-0.7-15.8-1.4-31.6-2.1-47.4c12.4-0.5,24.8-1.1,37.2-1.5
				c-0.1-3.4-0.3-6.8-0.4-10.1c-12.4,0.5-24.8,1-37.2,1.5c-0.4-9.2-0.8-18.4-1.2-27.5c2-0.1,4.1-0.2,6.1-0.3c0.1,3,0.3,6.1,0.4,9.1
				c12.9-0.6,25.9-1.1,38.8-1.6c0.1,1.6,0.1,3.3,0.2,4.9c-12.9,0.5-25.8,1-38.8,1.6c0.1,2.9,0.2,5.7,0.4,8.6
				c12.4-0.5,24.8-1,37.1-1.5c0.2,6.6,0.5,13.3,0.7,19.9c-12.3,0.5-24.7,1-37,1.5c0.1,2.6,0.2,5.2,0.3,7.8c11.4-0.5,22.9-1,34.3-1.4
				c0.1,1.5,0.1,3,0.2,4.5c-11.4,0.4-22.9,0.9-34.3,1.4c0.1,2.6,0.2,5.1,0.3,7.7c11.2-0.5,22.5-0.9,33.7-1.4c0.1,1.5,0.1,3,0.2,4.5
				c-11.2,0.4-22.5,0.9-33.7,1.4c0.1,2.5,0.2,5,0.3,7.5c12.8-0.6,25.7-1.1,38.5-1.5c0.1,1.5,0.1,3,0.2,4.5
				c-12.8,0.5-25.7,1-38.5,1.5c0.1,1.9,0.2,3.9,0.3,5.8c0.2,3.6,1.1,4.4,7.6,4.1C272.3,248.9,280.5,248.6,288.7,248.3z"/>
			<path class="st0" d="M189.5,261.3l-0.5-0.6c-1-1.2-3.1-2.9-4.2-3.5l-0.4-0.2l0.2-0.4c5.3-9.6,5.2-22.3,4.8-31l-1.2-22.2h0.5
				c14.8-0.8,29.7-1.6,44.4-2.2h0.5l2.3,48.2c0.2,3.7-0.7,5.5-3.2,6.7c-2.8,1.1-7.4,1.3-14.3,1.6h-0.7l-0.1-0.4
				c-0.4-1.6-1.5-3.8-2.2-5l-0.4-0.7h0.8c2.6-0.1,6.8-0.2,11.8-0.5c1.4-0.2,1.4-0.5,1.4-1.4l-0.7-15.5c-2.1,0.8-4.2,1.7-6.3,2.5
				c-8.1,3.3-15.8,6.3-22.4,8.7l-0.4,0.1l-3.3-5.6l0.6-0.2c7.7-2.3,18.2-6.1,29.3-10.2l2.3-0.8l-1-21.5c-10.6,0.5-21.4,1.1-31.9,1.6
				l0.9,16.4c0.8,15.1-1.2,27-6,35.4L189.5,261.3z M185.8,256.6c1,0.7,2.6,1.9,3.6,3c4.5-8.2,6.3-19.7,5.5-34.2L194,208h0.5
				c10.9-0.6,22-1.1,32.9-1.7h0.5l1.1,23.2l-2.9,1.1c-10.8,3.9-21,7.6-28.7,10l2.2,3.8c6.5-2.3,14-5.4,22-8.6c2.3-0.9,4.7-1.9,7-2.8
				l0.7-0.3l0.8,16.9c0.1,1.6-0.5,2.2-2.3,2.4c-4.6,0.2-8.4,0.4-11.1,0.4c0.7,1.3,1.4,2.8,1.8,4.1c6.8-0.3,11.3-0.6,13.8-1.6
				c2.2-1,2.8-2.4,2.6-5.8l-2.2-47.2c-14.3,0.7-28.9,1.4-43.4,2.2l1.2,21.2C190.9,234.2,190.9,246.8,185.8,256.6z M261.6,255.3
				c-8.7,0-11.3-2.4-11.6-9.7l-2.1-47.9h0.5c12.2-0.5,24.5-1,36.7-1.5l-0.3-9.1c-12.2,0.5-24.6,1-36.7,1.5h-0.5l-1.3-28.5l7.1-0.3
				l0.4,9.1c12.7-0.5,25.6-1.1,38.3-1.5h0.5l0.2,5.9h-0.5c-12.7,0.5-25.5,1-38.3,1.5l0.3,7.6c12.1-0.5,24.5-1,36.6-1.5h0.5l0.8,20.9
				h-0.5c-12,0.4-24.3,0.9-36.5,1.5l0.3,6.8c11.2-0.5,22.6-0.9,33.8-1.4h0.5l0.2,5.5h-0.5c-11.2,0.4-22.6,0.9-33.8,1.4l0.3,6.7
				c11.1-0.5,22.3-0.9,33.2-1.3h0.5l0.2,5.5h-0.5c-11,0.4-22.2,0.9-33.2,1.3l0.3,6.5c12.6-0.5,25.4-1.1,38-1.5h0.5l0.2,5.5H295
				c1.6,0.7,3.6,1.3,4.7,1.6l0.4,0.1v0.4c-0.5,10.1-2.2,13.5-10.8,13.9c-8.4,0.3-16.7,0.7-25.1,1
				C263.2,255.3,262.4,255.3,261.6,255.3z M248.9,198.6l2.1,46.9c0.3,7.4,2.9,9.1,13.2,8.7c8.4-0.4,16.7-0.7,25.1-1
				c7.4-0.3,9.2-2.5,9.8-12.5c-1.2-0.3-3.1-0.9-4.6-1.6c-0.2,7.5-1.1,9.5-5.8,9.6c-8.2,0.3-16.4,0.6-24.6,1c-6.6,0.3-8-0.5-8.1-4.6
				l-0.3-6.3h0.5c12.6-0.5,25.4-1.1,38-1.5l-0.1-3.5c-12.6,0.5-25.4,1-38,1.5h-0.5l-0.4-8.5h0.5c11-0.5,22.2-0.9,33.2-1.3l-0.1-3.5
				c-11,0.4-22.2,0.9-33.2,1.3h-0.5l-0.4-8.7h0.5c11.2-0.5,22.6-0.9,33.8-1.4l-0.1-3.5c-11.2,0.4-22.6,0.9-33.8,1.4h-0.5l-0.4-8.8
				h0.5c12.2-0.5,24.5-1,36.5-1.5l-0.7-18.9c-12.2,0.5-24.5,1-36.6,1.5h-0.5l-0.4-9.6h0.5c12.7-0.6,25.6-1.1,38.3-1.5l-0.1-3.9
				c-12.7,0.5-25.6,1-38.3,1.5h-0.5l-0.4-9.1l-5.1,0.2l1.2,26.5c12.1-0.5,24.5-1,36.7-1.5h0.5l0.4,11.1h-0.5
				C273.4,197.6,261.1,198.1,248.9,198.6z M256.7,239.8l0.2,5.3c0.1,3,0.5,3.9,7.1,3.6c8.2-0.3,16.4-0.7,24.6-1l0,0
				c3.9-0.1,4.7-0.9,4.9-9.5C281.3,238.8,268.9,239.3,256.7,239.8z M222.7,225.2l-0.5-0.1c-6-1.8-16.1-4.3-23.9-5.8l-0.6-0.1l2-4.7
				l0.4,0.1c8.3,1.3,18.3,3.6,23.7,5.3l0.5,0.2L222.7,225.2z M199.2,218.4c7.5,1.5,17,3.9,22.9,5.6l1.1-3.3
				c-5.4-1.7-14.8-3.8-22.7-5.1L199.2,218.4z M179.7,197.4l-0.3-6.2h0.5c5.3-0.3,10.6-0.6,15.8-0.9c-1-3.8-3.2-9-4.9-12.5l-0.2-0.5
				c-2.8,0.2-5.6,0.3-8.4,0.5h-0.5l-0.3-6.1h0.5c8.7-0.5,17.5-0.9,26.2-1.4c-1.7-2.9-4-5.9-5.7-8l-0.5-0.6l6.1-1.7l0.2,0.2
				c3,3,5.7,7.1,7.3,9.7c7.5-0.4,15-0.7,22.5-1.1h0.5l0.3,6.1h-0.5c-3.7,0.2-7.5,0.3-11.2,0.5l1.5,0.4l-0.2,0.5
				c-0.6,1.5-1.1,2.9-1.7,4.4c-1.1,2.9-2.1,5.6-3.2,8c6-0.3,11.9-0.6,17.9-0.8h0.5l0.3,6.2h-0.5c-20.4,0.9-41.1,2-61.5,3.1
				L179.7,197.4z M180.4,192.2l0.2,4.2c20.1-1.1,40.4-2.1,60.5-3.1l-0.2-4.2c-6.1,0.3-12.1,0.6-18.2,0.9h-0.8l0.3-0.7
				c1.2-2.6,2.3-5.6,3.5-8.7c0.5-1.3,1-2.6,1.5-3.9l-4.7-1.3v0.1c-1.2,4.4-3.5,10.6-5.1,14.5l-0.1,0.3H217
				c-5.7,0.3-11.5,0.6-17.2,0.9l-2.8,0.1l0,0h-0.6C191.1,191.6,185.8,191.9,180.4,192.2z M192,178c1.7,3.6,4,8.9,4.8,12.7l0.1,0.4
				l4.6-1.5c-0.8-3.4-2.9-8.6-5.2-12.7l0,0L192,178z M197.6,177c2.3,4.2,4.3,9.4,5,12.7v0.2c4.7-0.2,9.3-0.5,14-0.7
				c1.5-3.7,3.6-9.2,4.8-13.4C213.5,176.2,205.5,176.6,197.6,177z M182.4,172.8l0.2,4.1c4.1-0.2,8.1-0.4,12.2-0.7l4.6-0.2l0,0
				c7.1-0.4,14.3-0.7,21.4-1.1l0,0l3.1-0.2c4.6-0.2,9.2-0.4,13.9-0.7l-0.2-4.1c-7.4,0.3-14.9,0.7-22.3,1.1H215l-0.2-0.3
				c-1.5-2.5-4.2-6.6-7.1-9.6l-4.1,1.1c1.8,2.3,4.1,5.4,5.7,8.3l0.4,0.7h-0.8C200.1,171.8,191.3,172.3,182.4,172.8z M180.8,169.6
				l-1.1-19.2h0.5c17.9-1,36-1.9,53.9-2.7c-1.5-2.6-3.5-5.4-5.6-7.8l-0.5-0.6l6.9-2l0.2,0.2c3.3,3.2,6,7.4,7.4,9.8
				c16.5-0.7,33.3-1.4,49.8-2h0.5l0.7,19.1l-7.1,0.3l-0.5-12.6c-32.8,1.2-66.1,2.8-98.9,4.5l0.7,12.6L180.8,169.6z M180.8,151.4
				l0.9,17.2l4.9-0.3l-0.7-12.6h0.5c33.1-1.8,66.7-3.3,99.9-4.6h0.5l0.5,12.6l5.1-0.2l-0.6-17.2c-16.4,0.6-33.1,1.3-49.6,2h-0.3
				l-0.2-0.3c-1.3-2.2-4-6.4-7.2-9.6l-4.9,1.4c2.2,2.5,4.2,5.4,5.7,8.1l0.4,0.7h-0.8C217,149.5,198.8,150.4,180.8,151.4z"/>
		</g>
		<g>
			<path class="st0" d="M347.7,198.2c-1.3,11.1-3.9,20.8-7.2,29.1c9.3,15.1,27,16.9,53.7,16.4c13.6-0.3,31.1-1,43.5-2.3
				c-0.9,1.6-1.5,4.4-1.9,6.1c-11.6,0.8-27.7,1.3-41.5,1.6c-28.1,0.6-45.5-1.5-56.2-16.7c-4.3,8.8-9.8,15.6-16.1,20.8
				c-1.1-1.4-3.2-3.5-4.7-4.4c11.7-8.8,20.4-24.4,23.7-46.1c-4.8,0.1-9.6,0.3-14.4,0.4c-3.3,0.1-6.4,1-7.4,2.1c-0.4-1.7-2.1-5-3-6.4
				c1.8-0.6,3.9-1.6,5.7-3.8c3-3.5,11.3-16.5,16.5-24.8c-7.3,0.2-14.6,0.4-21.9,0.7c-0.1-1.8-0.1-3.6-0.2-5.5
				c8.5-0.3,17.1-0.5,25.6-0.8c0.5-0.2,1-0.5,1.4-0.7c1.6,0.6,3.2,1.3,4.8,1.9c-5.1,7.9-14.7,22.9-21.5,31.8
				c5.6-0.2,11.1-0.3,16.7-0.5c0.4-0.1,0.9-0.1,1.3-0.2C345.7,197.4,346.7,197.8,347.7,198.2z M336.9,158.6
				c-3.3-5.4-10.4-14.3-15.9-20.6c1.6-1,3.1-1.9,4.7-2.9c6,6.4,12.9,14.8,16.2,20.1C340.2,156.3,338.5,157.5,336.9,158.6z
				 M432,166.2c-27.2,0.4-54.4,0.9-81.6,1.7c0-1.7-0.1-3.5-0.1-5.2c12.4-0.3,24.8-0.6,37.2-0.9c-0.1-3.9-0.2-7.8-0.2-11.7
				c-9.8,0.2-19.7,0.4-29.5,0.7c0-1.7-0.1-3.5-0.1-5.2c9.8-0.3,19.7-0.5,29.5-0.7c-0.1-3.7-0.2-7.5-0.2-11.2c2.1,0,4.2-0.1,6.4-0.1
				c0.1,3.7,0.1,7.5,0.2,11.2c9.8-0.2,19.6-0.4,29.4-0.5c0,1.7,0.1,3.5,0.1,5.2c-9.8,0.1-19.6,0.3-29.4,0.5
				c0.1,3.9,0.2,7.8,0.2,11.7c12.7-0.3,25.4-0.5,38-0.6C432,162.7,432,164.4,432,166.2z M389.3,239.2c-0.1-5.5-0.2-11.1-0.3-16.6
				c-12,0.3-24,0.5-36,0.9c0-1.7-0.1-3.5-0.1-5.2c12-0.3,24-0.6,36-0.9c-0.1-3.9-0.2-7.8-0.2-11.7c-10,0.2-20,0.4-30,0.7
				c0-1.7-0.1-3.5-0.1-5.2c10-0.3,20-0.5,30.1-0.7c-0.1-3.6-0.2-7.2-0.2-10.8c-11.3,0.2-22.6,0.5-33.9,0.8c0-1.7-0.1-3.5-0.1-5.2
				c25.4-0.7,50.9-1.2,76.3-1.5c0,1.7,0,3.5,0.1,5.2c-12.1,0.2-24.1,0.4-36.2,0.6c0.1,3.6,0.1,7.2,0.2,10.8
				c10.2-0.2,20.5-0.4,30.7-0.5c0,1.7,0.1,3.5,0.1,5.2c-10.2,0.2-20.5,0.3-30.7,0.5c0.1,3.9,0.2,7.8,0.2,11.7
				c12.4-0.2,24.9-0.5,37.3-0.6c0,1.7,0,3.5,0.1,5.2c-12.4,0.2-24.8,0.4-37.3,0.6c0.1,5.5,0.2,11.1,0.3,16.6
				C393.4,239.1,391.4,239.2,389.3,239.2z M371.5,168.3c3.3,4.2,6.4,9.9,7.4,14c-1.9,0.6-3.8,1.1-5.8,1.7c-1-3.7-3.9-9.7-7.3-13.9
				C367.7,169.6,369.6,168.9,371.5,168.3z M415.3,168.9c-2.8,5.1-5.6,10.9-8.2,14.6c-1.6-0.5-3.3-1.1-4.9-1.6
				c2.3-4.3,5.5-10.8,7-14.9C411.2,167.6,413.3,168.2,415.3,168.9z"/>
			<path class="st0" d="M322,253.9l-0.3-0.4c-1.1-1.4-3.2-3.5-4.6-4.3l-0.6-0.4l0.6-0.5c12.1-9.1,20.2-24.8,23.4-45.2
				c-4.6,0.1-9.2,0.3-13.8,0.4c-3.5,0.1-6.3,1.1-7.1,1.9l-0.6,0.7l-0.2-0.9c-0.4-1.6-2.1-5-2.9-6.3l-0.3-0.5l0.6-0.2
				c1.6-0.5,3.6-1.4,5.4-3.7c2.7-3.1,9.9-14.3,16-24c-7,0.2-14,0.4-21,0.7h-0.5l-0.2-6.5h0.5c8.5-0.3,17-0.5,25.5-0.8l1.5-0.7
				l5.6,2.3l-0.3,0.5c-4.6,7.2-14,21.9-20.9,31c5.2-0.2,10.4-0.3,15.6-0.5l1.4-0.2l3.5,1.4v0.4c-1.2,10.2-3.6,20-7.1,29
				c8.9,14.2,24.9,16.5,53.1,15.9c10.3-0.2,29.6-0.8,43.5-2.3l1-0.1l-0.5,0.8c-0.8,1.5-1.4,4.3-1.8,5.9l-0.1,0.4l-0.4,0.1
				c-13.5,0.9-31.8,1.4-41.5,1.6c-28.8,0.6-45.5-1.8-56.2-16.2c-4.1,8.1-9.4,14.9-15.8,20.2L322,253.9z M318.2,248.8
				c1.3,0.9,2.9,2.5,3.9,3.7c6.4-5.4,11.6-12.2,15.5-20.3l0.4-0.8l0.5,0.7c10.4,14.7,27,17.1,55.8,16.5c9.6-0.2,27.6-0.7,41.1-1.6
				c0.3-1.5,0.8-3.6,1.4-5.1c-13.9,1.4-32.6,2-42.7,2.2c-28.7,0.6-45-1.8-54.1-16.6l-0.1-0.2l0.1-0.2c3.5-8.9,5.9-18.5,7.1-28.6
				l-2.6-1l-1.2,0.2c-5.6,0.2-11.2,0.3-16.7,0.5h-1.1l0.6-0.8c6.7-8.8,16.3-23.7,21.1-31.3l-4-1.6l-1.4,0.6
				c-8.4,0.2-16.7,0.5-25.1,0.8l0.1,4.5c7.1-0.2,14.3-0.5,21.4-0.7h0.9l-0.5,0.8c-6.2,9.9-13.7,21.7-16.6,24.9
				c-1.7,2.2-3.8,3.2-5.3,3.8c0.8,1.4,1.9,3.7,2.5,5.3c1.4-0.9,4.2-1.6,7.1-1.7c4.8-0.2,9.6-0.3,14.4-0.4h0.6l-0.1,0.6
				C338.4,223.5,330.3,239.3,318.2,248.8z M388.8,239.7l-0.3-16.6c-11.8,0.2-23.7,0.5-35.5,0.9h-0.5l-0.2-6.2h0.5
				c11.8-0.3,23.7-0.6,35.5-0.9l-0.2-10.7c-9.9,0.2-19.8,0.4-29.5,0.7h-0.5l-0.2-6.2h0.5c9.8-0.3,19.7-0.5,29.6-0.7l-0.2-9.8
				c-11.1,0.2-22.3,0.5-33.4,0.8h-0.5l-0.2-6.2h0.5c6.2-0.2,12.3-0.3,18.5-0.5v-0.2c-1-3.5-3.7-9.4-7.2-13.7l-0.5-0.6l6.5-2.1
				c-7,0.2-14,0.3-21,0.5H350l-0.2-6.2h0.5c12.2-0.3,24.6-0.6,36.8-0.9l-0.2-10.7c-9.6,0.2-19.4,0.4-29,0.7h-0.5l-0.2-6.2h0.5
				c9.6-0.2,19.4-0.5,29-0.7l-0.2-11.2l7.4-0.2l0.2,11.2c9.6-0.2,19.3-0.4,28.9-0.5h0.5l0.1,6.1l-0.5,0.1
				c-9.6,0.1-19.4,0.3-28.9,0.5l0.2,10.7c12.5-0.2,25.1-0.5,37.5-0.6h0.5l0.1,6.2H432c-7,0.1-14,0.2-21,0.3l5,1.6l-0.3,0.5
				c-0.8,1.5-1.7,3.1-2.5,4.6c-2,3.7-3.8,7.2-5.6,9.8c7.7-0.1,15.3-0.3,22.9-0.4h0.5l0.1,6.2h-0.5c-11.9,0.2-23.9,0.4-35.7,0.6
				l0.2,9.8c10-0.2,20.2-0.4,30.2-0.5h0.5l0.1,6.2h-0.5c-10.1,0.1-20.2,0.3-30.2,0.5l0.2,10.7c12.3-0.2,24.7-0.5,36.8-0.6h0.5
				l0.1,6.2h-0.5c-12.2,0.2-24.5,0.4-36.8,0.6l0.3,16.6L388.8,239.7z M389.5,222l0.3,16.6l5.1-0.1l-0.3-16.6h0.5
				c12.2-0.2,24.6-0.5,36.8-0.6l-0.1-4.2c-12.1,0.2-24.5,0.4-36.8,0.6h-0.5l-0.3-12.7h0.5c10-0.2,20.1-0.4,30.2-0.5l-0.1-4.2
				c-10,0.1-20.2,0.3-30.2,0.5h-0.5l-0.2-11.8h0.5c11.8-0.2,23.8-0.4,35.7-0.6l-0.1-4.2c-25,0.4-50.3,0.9-75.3,1.5l0.1,4.2
				c11.1-0.3,22.4-0.6,33.4-0.8h0.5l0.2,11.8h-0.5c-9.8,0.2-19.7,0.4-29.6,0.7l0.1,4.2c9.7-0.3,19.6-0.5,29.5-0.7h0.5l0.3,12.7h-0.5
				c-11.8,0.2-23.7,0.5-35.5,0.9l0.1,4.2c11.7-0.3,23.7-0.6,35.5-0.9L389.5,222L389.5,222z M371.7,167.8l0.2,0.2
				c3.5,4.6,6.6,10.3,7.5,14.2l0.1,0.5l-5.5,1.6c10.7-0.2,21.3-0.5,32-0.7l-4.5-1.5l0.3-0.5c2.4-4.5,5.4-10.6,6.8-14.6
				C396.3,167.2,384,167.5,371.7,167.8z M366.7,170.4c3.2,4.2,5.8,9.5,6.8,13l4.8-1.4c-1-3.7-3.8-8.8-7-13.1L366.7,170.4z
				 M402.9,181.6l4,1.3c1.7-2.5,3.5-6,5.5-9.6c0.7-1.4,1.5-2.8,2.2-4.1l-5.1-1.6C407.7,172.3,404.3,178.9,402.9,181.6z M350.8,163.1
				l0.1,4.2c26.7-0.7,53.8-1.3,80.6-1.6l-0.1-4.2c-12.4,0.2-25.1,0.4-37.5,0.6h-0.5l-0.3-12.7h0.5c9.5-0.2,19.2-0.4,28.9-0.5
				l-0.1-4.2c-9.6,0.1-19.3,0.3-28.9,0.5H393l-0.2-11.2l-5.4,0.1l0.2,11.2h-0.5c-9.6,0.2-19.4,0.4-29,0.7l0.1,4.2
				c9.7-0.2,19.4-0.5,29-0.7h0.5l0.3,12.7h-0.5C375.4,162.5,363,162.8,350.8,163.1z M336.7,159.3l-0.3-0.4
				c-3.4-5.4-10.5-14.4-15.8-20.5l-0.4-0.4l5.5-3.4l0.3,0.3c6.4,6.8,13.1,15.1,16.3,20.1l0.3,0.4L336.7,159.3z M321.8,138.1
				c5.2,6,11.9,14.4,15.3,19.8l4.2-2.8c-3.2-4.9-9.5-12.7-15.6-19.3L321.8,138.1z"/>
		</g>
		<g>
			<path class="st0" d="M518.2,132.8c-0.1,4.2-0.1,10.4-0.8,17.8c1.8,13,9.7,72.3,56.4,93.5c-1.7,1.3-3.6,3.3-4.6,5
				c-35.6-16.7-48.9-54.8-54.4-79.2c-5.1,27.7-18.7,61.4-53.8,79.5c-1.2-1.5-3.3-3.4-4.9-4.5c54.6-27.2,55.1-93.6,55.3-112.2
				C513.7,132.8,516,132.8,518.2,132.8z"/>
			<path class="st0" d="M460.9,250.2l-0.3-0.3c-1.2-1.5-3.3-3.3-4.8-4.4l-0.7-0.5l0.7-0.4c35.9-17.9,54.4-55.5,55-111.6v-0.7h7.8
				v0.5c0,0.9-0.1,1.9-0.1,3c-0.1,4-0.2,9-0.7,14.8v0.3c8.3,59.4,35.1,83.2,56,92.7l0.8,0.3l-0.7,0.5c-1.6,1.2-3.4,3.2-4.5,4.9
				l-0.2,0.4l-0.4-0.2c-26.6-12.5-44.9-38.5-54.2-77.2c-7.4,37-25.4,63.1-53.6,77.6L460.9,250.2z M457.1,245.1
				c1.4,1.1,3,2.5,4.1,3.8c28.3-14.7,46.1-41.3,53.1-79l0.4-2.4l0.5,2.4c9,39.5,27.1,66,53.7,78.6c1-1.5,2.5-3.1,3.8-4.3
				c-21.1-9.9-47.6-34-55.9-93.2l-0.1-0.4v-0.1c0.5-5.8,0.6-10.8,0.7-14.8c0-0.9,0-1.7,0.1-2.5h-5.8c-0.1,9.4-0.4,30.7-7.3,52.7
				C496,213.6,480,233.5,457.1,245.1z"/>
		</g>
		<g>
			<path class="st0" d="M658.7,178.8c8.8,30.9,26.1,56.6,51.3,68.4c-1.7,1.4-3.6,3.9-4.9,5.7c-25.7-13.3-43.1-39.6-52.5-72.5
				c-6.2,26.9-20.7,55.1-55.5,70.1c-1-1.7-2.9-3.9-4.6-5.1c34-14,48-41.2,54.1-66.9c-16.9-0.4-33.9-0.7-50.9-0.9
				c0-2.1,0.1-4.2,0.1-6.2c17.3,0.2,34.6,0.5,52,0.9c2.7-14.8,3-28.5,3.4-38.4c2.2,0,4.4,0.1,6.6,0.2c-0.4,10.1-0.8,23.8-3.4,38.4
				c18.7,0.4,37.4,1,56.2,1.6c-0.1,2.1-0.1,4.2-0.2,6.2C693.1,179.7,675.9,179.2,658.7,178.8z"/>
			<path class="st0" d="M705.2,253.5l-0.4-0.2c-24.1-12.5-42.1-37-52.2-70.9c-8.1,33.2-26.7,56.3-55.4,68.6l-0.4,0.2l-0.2-0.4
				c-0.9-1.5-2.8-3.8-4.5-5l-0.7-0.5l0.8-0.3c28.2-11.6,45.7-33.1,53.7-66c-16.6-0.4-33.5-0.7-50.2-0.9h-0.5l0.1-7.2h0.5
				c17.1,0.2,34.4,0.5,51.5,0.9c2.4-13.6,2.9-26.4,3.2-35.8l0.1-2.6l7.6,0.2v1.1c-0.4,9.8-0.8,23.2-3.3,37.4
				c18.5,0.4,37.2,1,55.6,1.6h0.5l-0.2,7.2h-0.5c-16.9-0.5-34-1-50.9-1.4c9.3,32.4,27.4,56.4,50.8,67.5l0.7,0.3l-0.6,0.5
				c-1.7,1.3-3.5,3.8-4.8,5.6L705.2,253.5z M652.5,178.4l0.5,1.9c9.9,34.5,27.8,59.3,51.9,71.9c1.1-1.6,2.7-3.6,4.1-4.9
				c-23.5-11.4-41.6-35.7-50.8-68.4l-0.2-0.7h0.7c17,0.4,34.2,0.9,51.1,1.4l0.2-5.2c-18.5-0.6-37.2-1.1-55.7-1.5h-0.6l0.1-0.6
				c2.5-14.3,3-27.9,3.4-37.8l0,0l-5.6-0.1l-0.1,1.6c-0.3,9.5-0.8,22.6-3.3,36.4l-0.1,0.4h-0.4c-17.1-0.4-34.4-0.7-51.5-0.9
				l-0.1,5.2c16.7,0.2,33.7,0.5,50.4,0.9h0.6l-0.1,0.6c-7.9,33.2-25.4,55.1-53.6,66.9c1.5,1.2,2.9,3,3.8,4.4
				c28.7-12.5,47.1-35.9,54.8-69.6L652.5,178.4z"/>
		</g>
		<g>
			<path class="st0" d="M798.8,140.8c-0.7,0.7-1.4,1.6-2.1,2.4c12.1,13.4,35.3,26,55.5,32.3c-1.6,1.1-3.4,3.2-4.4,4.7
				c-10.6-3.6-22.2-9-32.6-15.5c-0.1,1.4-0.1,2.9-0.2,4.3c-15.2-0.8-30.4-1.5-45.7-2.1c0.1-1.3,0.1-2.7,0.2-4
				c-10.7,5.5-22.4,9.9-33.8,13.1c-0.7-1.2-2.8-3.9-3.9-5.1c24-5.9,48.1-16.7,61.5-32.2C795.1,139.3,796.9,140.1,798.8,140.8z
				 M748,173.9c28.9,1.1,57.8,2.5,86.7,4c-0.6,10.4-1.1,20.8-1.7,31.2c-28.8-1.5-57.5-2.9-86.3-4C747.2,194.7,747.6,184.3,748,173.9
				z M752.7,200.4c11.5,0.5,22.9,0.9,34.4,1.5c0.3-7.1,0.6-14.2,1-21.3c-11.5-0.5-23-1-34.5-1.5C753.3,186.2,753,193.3,752.7,200.4z
				 M754.5,212.7c24,1,47.9,2.1,71.9,3.3c-0.7,13.8-1.4,27.6-2.2,41.4c-2.1-0.1-4.2-0.2-6.4-0.3c0.1-1.5,0.2-2.9,0.2-4.4
				c-19.7-1-39.3-1.9-59-2.7c-0.1,1.6-0.1,3.3-0.2,4.9c-2-0.1-4.1-0.2-6.1-0.2C753.4,240.6,753.9,226.7,754.5,212.7z M760.4,218
				c-0.1,3.6-0.3,7.3-0.4,10.9c19.7,0.8,39.5,1.7,59.2,2.7c0.2-3.6,0.4-7.3,0.6-10.9C800,219.7,780.2,218.8,760.4,218z M818.3,247.6
				c0.2-3.6,0.4-7.3,0.6-10.9c-19.7-1-39.4-1.9-59.1-2.7c-0.1,3.6-0.3,7.3-0.4,10.9C779,245.7,798.7,246.6,818.3,247.6z
				 M768.2,182.1c3.8,4.8,7.4,11.1,8.7,15.6c-1.7,0.7-3.5,1.3-5.2,2c-1.1-4.3-4.8-11-8.4-15.8C764.9,183.3,766.6,182.7,768.2,182.1z
				 M813.9,163.8c-8-5.1-15.4-10.8-20.9-16.9c-6.2,5.8-13.6,10.7-21.6,14.9C785.5,162.4,799.7,163.1,813.9,163.8z M828.5,182.5
				c-11.6-0.6-23.2-1.2-34.8-1.7c-0.3,7.1-0.7,14.2-1,21.3c11.5,0.5,23.1,1.1,34.6,1.7C827.8,196.7,828.2,189.6,828.5,182.5z
				 M803.6,199.3c3-4.3,7.1-11.2,9.5-15.7c1.8,0.9,3.6,1.7,5.4,2.6c-3.3,5.4-7.3,11.3-10.4,15.2
				C806.6,200.8,805.1,200.1,803.6,199.3z"/>
			<path class="st0" d="M824.7,257.9l-7.4-0.4l0.2-4.4c-19.3-1-38.8-1.9-58-2.7l-0.2,4.9l-7.1-0.3l1.7-43h0.5
				c23.9,1,48.1,2.1,71.9,3.3h0.5L824.7,257.9z M818.4,256.6l5.4,0.3l2.1-40.4c-23.5-1.2-47.3-2.3-70.9-3.3l-1.6,41l5.1,0.2l0.2-4.9
				h0.5c19.5,0.8,39.4,1.7,59,2.7h0.5L818.4,256.6z M818.8,248.1h-0.5c-19.6-1-39.4-1.9-59-2.7h-0.5l0.5-11.9h0.5
				c19.6,0.8,39.5,1.7,59.1,2.7h0.5L818.8,248.1z M759.8,244.4c19.3,0.8,38.8,1.7,58,2.7l0.5-9.9c-19.3-1-38.8-1.9-58.1-2.7
				L759.8,244.4z M819.6,232.1h-0.5c-19.6-1-39.5-1.9-59.2-2.7h-0.5l0.5-11.9h0.5c19.7,0.8,39.6,1.7,59.3,2.7h0.5L819.6,232.1z
				 M760.5,228.4c19.3,0.8,38.9,1.7,58.2,2.7l0.5-9.9c-19.3-1-38.9-1.9-58.3-2.7L760.5,228.4z M833.5,209.6H833
				c-28.6-1.5-57.7-2.9-86.3-4h-0.5v-0.5l1.2-31.7h0.5c28.8,1.1,58,2.5,86.7,4h0.5L833.5,209.6z M747.3,204.6
				c28.3,1.1,57,2.4,85.3,3.9l1.6-30.2c-28.5-1.5-57.3-2.8-85.7-3.9L747.3,204.6z M827.9,204.3h-0.5c-11.4-0.6-23.1-1.2-34.6-1.7
				h-0.5l1-22.3h0.5c11.5,0.5,23.2,1.1,34.8,1.7h0.5L827.9,204.3z M793.3,201.6c11.2,0.5,22.5,1.1,33.6,1.7L828,183
				c-11.2-0.6-22.6-1.1-33.8-1.7L793.3,201.6z M787.6,202.4h-0.5c-11.4-0.5-23-1-34.4-1.5h-0.5l0.9-22.3h0.5
				c11.5,0.5,23.1,0.9,34.5,1.5h0.5L787.6,202.4z M753.3,199.9c11.1,0.4,22.3,0.9,33.4,1.4l0.9-20.3c-11.1-0.5-22.4-1-33.5-1.4
				L753.3,199.9z M808.2,202.1l-5.4-2.6l0.3-0.5c2.8-4.1,7-11,9.4-15.6l0.2-0.4l6.3,3.1l-0.3,0.5c-3.5,5.8-7.5,11.6-10.4,15.3
				L808.2,202.1z M804.3,199.2l3.6,1.7c2.8-3.5,6.5-9,9.8-14.4l-4.5-2.2C810.8,188.8,807.1,195.1,804.3,199.2z M771.4,200.4
				l-0.1-0.5c-1-4-4.6-10.6-8.3-15.7l-0.4-0.5l5.9-2.1l0.2,0.3c4.1,5.3,7.6,11.5,8.8,15.8l0.1,0.4L771.4,200.4z M764.1,184.1
				c3.6,4.9,6.8,10.9,7.9,14.9l4.3-1.6c-1.2-4-4.4-9.7-8.2-14.7L764.1,184.1z M848,180.8l-0.4-0.1c-10.7-3.6-22.1-9-32-15.1
				l-0.2,3.9h-0.5c-15.2-0.8-30.5-1.5-45.7-2.1h-0.5l0.2-3.7c-9.9,5.1-21.1,9.4-33.2,12.7l-0.4,0.1l-0.2-0.3c-0.7-1.2-2.7-3.8-3.8-5
				l-0.6-0.6l0.8-0.2c15.9-3.9,45.1-13.3,61.2-32.1l0.2-0.3l6.6,2.6l-0.5,0.5c-0.3,0.4-0.7,0.8-1,1.2c-0.2,0.3-0.5,0.6-0.7,0.9
				c11.4,12.4,33.4,25.1,54.9,31.8l1,0.3l-0.9,0.6c-1.5,1-3.2,3-4.2,4.6L848,180.8z M815.7,164.4c9.9,6.2,21.2,11.5,31.9,15.2
				c0.6-0.9,1.9-2.7,3.5-3.9c-21.6-6.8-43.5-19.7-54.8-32.1l-0.3-0.3l0.3-0.3c0.3-0.4,0.7-0.8,1-1.2c0.2-0.2,0.4-0.4,0.6-0.7
				l-4.6-1.8c-16.1,18.5-44.6,27.9-60.7,31.9c1.1,1.2,2.5,3.1,3.2,4.2c12.2-3.4,23.4-7.8,33.4-13l0.8-0.4l0,0l1.1-0.6
				c8.7-4.6,15.7-9.4,21.5-14.8l0.4-0.3l0.3,0.4c5,5.5,12,11.2,20.8,16.8L815.7,164.4L815.7,164.4z M769.8,166.3
				c14.8,0.6,29.8,1.3,44.7,2.1l0.2-4.1h-0.8c-14.1-0.7-28.4-1.4-42.5-2l-1.3-0.1L769.8,166.3z M773.2,161.4
				c12.9,0.6,25.9,1.2,38.9,1.8c-8-5.2-14.4-10.4-19.1-15.6C787.5,152.6,781,157.1,773.2,161.4z"/>
		</g>
		<g>
			<path class="st0" d="M941.2,192.7c-7.7,4.8-16,9.4-24.3,13.6c18.8,1.3,37.5,2.6,56.3,4c-0.1,1.8-0.3,3.6-0.4,5.4
				c-19.6-1.5-39.1-2.9-58.7-4.2c-2.3,4.9-5,10.1-7.3,14.5c19,1.3,38.1,2.6,57.1,4c-0.2,1-0.4,2.1-0.6,3.1
				c-4.1,18.1-7.2,25.9-11.5,28.9c-2.6,1.9-5,2.2-9.6,2c-4.3-0.3-13.5-1-23.5-2.4c0-1.8-0.5-4.2-1.6-6c10,1.6,20.5,2.5,23.7,2.7
				c3.3,0.2,5,0.2,6.3-0.6c3.3-2,5.8-8.3,9.1-22.7c-19.7-1.5-39.4-2.8-59.2-4.1c3.4-5.5,7.2-13.5,10.5-20.4
				c-12.1,5.6-24.7,10.4-37.3,14.5c-0.6-1.5-2-4.3-3.2-5.7c22.3-6.5,44.1-15.9,64.1-27.4c-19.5-1.4-39-2.6-58.5-3.8
				c0.1-1.9,0.2-3.8,0.3-5.7c15.8,0.9,31.5,1.9,47.3,3c0.4-5.8,0.8-11.7,1.2-17.5c-11.8-0.8-23.6-1.6-35.4-2.3
				c0.1-1.9,0.2-3.7,0.3-5.6c11.8,0.7,23.6,1.5,35.4,2.3c0.4-5.5,0.7-11,1.1-16.5c2.1,0.1,4.2,0.3,6.4,0.4c-0.4,5.5-0.8,11-1.1,16.5
				c9.9,0.7,19.8,1.4,29.7,2.1c-0.1,1.9-0.3,3.7-0.4,5.6c-9.9-0.7-19.8-1.4-29.7-2.1c-0.4,5.8-0.8,11.7-1.2,17.5
				c4.3,0.3,8.7,0.6,13,0.9c14.3-8.9,27.1-19.2,37.8-30.3c1.7,1.1,3.4,2.3,5.1,3.4c-10,10.1-21.1,19.4-33.4,27.6
				c12.5,0.9,24.9,1.8,37.4,2.8c-0.1,1.9-0.3,3.8-0.4,5.7C971.2,194.9,956.2,193.8,941.2,192.7z"/>
			<path class="st0" d="M944.3,264.6c-0.6,0-1.3,0-2.1-0.1H942c-4.4-0.3-13.5-1-23.4-2.4l-0.4-0.1v-0.4c0-2-0.6-4.2-1.5-5.7
				l-0.5-0.9l1.1,0.2c11,1.8,22.4,2.6,23.7,2.7c3.2,0.2,4.8,0.2,6-0.5c3.1-1.9,5.6-8,8.8-21.8c-19.4-1.4-39.1-2.8-58.6-4l-0.8-0.1
				l0.4-0.7c3.2-5.2,6.7-12.6,9.9-19.1c-11.1,5.1-23.2,9.7-36.1,13.9l-0.5,0.1l-0.2-0.4c-0.6-1.4-1.9-4.2-3.1-5.5l-0.5-0.6l0.8-0.2
				c21.6-6.3,42.6-15.2,62.5-26.5c-18.9-1.3-38.1-2.5-56.9-3.7h-0.5l0.4-6.7h0.5c15.5,0.9,31.3,1.9,46.8,3l1.1-16.5
				c-11.5-0.8-23.3-1.5-34.9-2.3h-0.5l0.4-6.6h0.5c11.6,0.7,23.3,1.5,34.9,2.3l1.1-16.5l7.4,0.5l-1.1,16.5
				c9.7,0.7,19.5,1.4,29.2,2.1h0.5l-0.5,6.6h-0.5c-9.7-0.7-19.5-1.4-29.2-2.1l-1.1,16.5c4.1,0.3,8.2,0.6,12.4,0.9
				c14.3-9,27-19.1,37.6-30.2l0.3-0.3l5.9,4l-0.4,0.4c-9.8,9.9-20.7,19-32.3,26.9c12,0.9,24.1,1.8,35.9,2.7h0.5l-0.5,6.7h-0.5
				c-14.8-1.2-29.9-2.3-44.8-3.4c-7.5,4.7-15.1,8.9-22.6,12.7c18.1,1.2,36.4,2.5,54.4,3.9h0.5l-0.5,6.4h-0.5
				c-19.3-1.5-39-2.9-58.4-4.2c-1.9,4-4,8.1-5.9,11.8l-0.9,1.8c18.7,1.2,37.7,2.6,56.4,4h0.6l-0.7,3.6c-4.2,18.5-7.3,26.2-11.7,29.2
				C949.8,264.2,947.6,264.6,944.3,264.6z M919.3,261.2c9.7,1.4,18.6,2,22.9,2.4h0.1c4.8,0.2,6.8-0.2,9.2-1.9
				c4.1-2.8,7.2-10.6,11.3-28.6l0.5-2.5c-18.8-1.4-37.8-2.8-56.6-4h-0.8l1.6-3.1c1.9-3.8,4.1-8,6-12l0.1-0.3h0.3
				c19.3,1.3,38.9,2.7,58.2,4.2l0.3-4.4c-18.5-1.4-37.3-2.8-55.8-4l-1.8-0.1l1.7-0.8c8-4,16.2-8.5,24.3-13.5l0.1-0.1h0.2
				c14.8,1.1,29.7,2.2,44.5,3.3l0.4-4.7c-12.2-1-24.6-1.9-36.9-2.8l-1.4-0.1l1.2-0.8c11.8-7.9,22.8-17.1,32.9-27.1l-4.2-2.8
				c-10.6,11-23.3,21.2-37.6,30.1l-0.1,0.1h-0.2c-4.3-0.3-8.7-0.6-13-0.9h-0.5l1.3-18.5h0.5c9.7,0.7,19.5,1.4,29.2,2.1l0.3-4.6
				c-9.7-0.7-19.6-1.4-29.2-2.1h-0.5l1.1-16.5l-5.4-0.4l-1.1,16.5h-0.5c-11.6-0.8-23.3-1.5-34.9-2.3l-0.3,4.6
				c11.6,0.7,23.4,1.5,34.9,2.3h0.5l-1.2,18.5h-0.5c-15.5-1-31.2-2-46.8-3l-0.3,4.7c19.2,1.1,38.7,2.4,58,3.7l1.6,0.1l-1.4,0.8
				c-20.2,11.6-41.5,20.8-63.5,27.2c1,1.4,2.1,3.4,2.6,4.8c13.2-4.3,25.5-9.1,36.8-14.3l1.3-0.6l-1.1,2.4c-3,6.3-6.5,13.4-9.6,18.6
				c19.4,1.2,39,2.6,58.3,4h0.6l-0.1,0.6c-3.3,14.5-6,20.9-9.4,23c-1.5,0.9-3.1,0.9-6.6,0.7c-1.2-0.1-12.1-0.9-22.8-2.6
				C918.9,258,919.3,259.8,919.3,261.2z"/>
		</g>
	</g>
	<g>
		<g>
			<path class="st1" d="M420,63.4c0,0.8,0.1,1.6,0.1,2.4c-15.1,0.9-30.3,2-45.4,3.3c-0.1-0.8-0.1-1.6-0.2-2.4
				c7.2-0.6,14.3-1.2,21.5-1.7c-0.1-2-0.3-3.9-0.4-5.9c-5.3,0.4-10.7,0.8-16,1.2c-0.1-0.8-0.1-1.5-0.2-2.3c5.3-0.4,10.7-0.9,16-1.3
				c-0.1-1.8-0.3-3.7-0.4-5.5c-6.2,0.5-12.3,0.9-18.4,1.5c-0.1-0.8-0.1-1.5-0.2-2.3c13.3-1.1,26.5-2.1,39.8-2.9
				c0,0.8,0.1,1.5,0.1,2.3c-6.2,0.4-12.5,0.8-18.7,1.2c0.1,1.8,0.3,3.7,0.4,5.5c5.4-0.4,10.8-0.8,16.2-1.1c0,0.8,0.1,1.5,0.1,2.3
				c-5.4,0.3-10.8,0.7-16.1,1.1c0.1,2,0.3,3.9,0.4,5.9C405.7,64.3,412.8,63.8,420,63.4z M413.4,43.1c-11.7,0.7-23.4,1.6-35,2.5
				c-0.5-6.1-1-12.2-1.5-18.3c4.6-0.4,9.3-0.7,13.9-1.1c0.9-1.7,1.7-3.9,2.1-5.4c1,0.1,1.9,0.1,2.9,0.2c-0.7,1.7-1.4,3.4-2.2,4.9
				c6.2-0.5,12.4-0.9,18.7-1.3C412.6,30.9,413,37,413.4,43.1z M409.7,27.1c-10,0.6-20.1,1.4-30.1,2.2c0.2,1.9,0.3,3.9,0.5,5.8
				c10-0.8,20-1.5,30-2.2C410,31,409.8,29.1,409.7,27.1z M410.2,35.1c-10,0.6-20,1.4-30,2.2c0.2,2,0.3,3.9,0.5,5.9
				c9.9-0.8,19.9-1.5,29.9-2.2C410.5,39,410.4,37.1,410.2,35.1z"/>
		</g>
		<g>
			<path class="st1" d="M470,37.5c-2.5,2.2-5.8,4.7-8.8,6.9c2.9,7.5,8.8,13.6,15.9,16.1c-0.6,0.5-1.3,1.4-1.6,2.1
				c-7.1-2.9-12.9-9.1-16.2-16.9c-1,0.7-2.1,1.4-3.1,2c2.3,7,1.3,13.9-1.7,16.1c-1.4,1.3-2.7,1.6-4.9,1.7c-1.1,0-2.9,0.1-4.6,0
				c-0.1-0.7-0.4-1.7-0.8-2.3c1.9,0.1,3.8,0.1,4.8,0.1c1.5-0.1,2.6-0.2,3.7-1.2c2-1.4,2.9-6.1,1.9-11.3c-5.8,5-15.1,10.3-22.9,13
				c-0.3-0.7-1-1.6-1.5-2.1c8.4-2.5,18.6-8.1,23.7-13.3c-0.5-1.6-1.1-3.1-2-4.7c-5,3.9-13.3,8.2-19.7,10.7c-0.3-0.6-1-1.5-1.5-2
				c6.6-2.1,15.5-6.6,20.1-10.4c-0.9-1.3-2-2.6-3.3-3.8c-4.8,3-10.5,5.6-15.7,7.5c-0.2-0.5-1-1.5-1.6-2c6.9-2.3,14.6-5.6,19.6-9.7
				c-4.6,0.2-9.2,0.4-13.8,0.6c0-0.8-0.1-1.5-0.1-2.3c10.5-0.5,21.1-0.9,31.7-1.3c0,0.8,0,1.6,0.1,2.3c-4.8,0.1-9.6,0.3-14.4,0.5
				c-1.1,1.1-2.5,2.2-3.9,3.2c2.9,2.6,5,5.7,6.3,8.8c4.2-2.8,9.3-6.7,12.4-9.7C468.6,36.5,469.3,37,470,37.5z M432.2,33.8
				c-0.8,0-1.7,0.1-2.5,0.1c-0.2-3.4-0.4-6.8-0.5-10.2c7-0.4,13.9-0.7,20.9-1c-0.7-1.4-1.7-3.1-2.7-4.4c0.8-0.3,1.7-0.6,2.5-0.8
				c1.2,1.5,2.5,3.6,3.2,5.1c6.9-0.3,13.7-0.5,20.6-0.7c0.1,3.4,0.2,6.8,0.3,10.2c-0.9,0-1.7,0-2.6,0.1c-0.1-2.6-0.2-5.2-0.2-7.8
				c-13.1,0.4-26.2,0.9-39.3,1.6C432,28.6,432.1,31.2,432.2,33.8z"/>
		</g>
		<g>
			<path class="st1" d="M504.1,32.3c-1.8-1.4-5.2-3.6-8.2-5.3c-1.9,2.9-5.1,4.8-10.5,6.2c-0.3-0.6-0.9-1.5-1.4-1.9
				c9.5-2.3,11.7-6.1,12.1-14.8c0.8,0,1.6,0,2.4,0c-0.2,3.4-0.6,6.2-1.6,8.5c3.1,1.8,6.8,4.1,8.9,5.6
				C505.2,31.1,504.6,31.7,504.1,32.3z M490,24.6c-0.9-1.4-2.8-3.6-4.3-5.2c0.5-0.4,1-0.8,1.6-1.2c1.6,1.6,3.5,3.7,4.4,5
				C491.1,23.7,490.6,24.2,490,24.6z M486.3,33.7c14.7-0.3,29.4-0.4,44.2-0.3c0,3,0,6.1,0,9.1c-0.9,0-1.7,0-2.6,0c0-2.3,0-4.6,0-6.9
				c-13,0-26,0.1-39.1,0.3c0,2.3,0.1,4.6,0.1,6.9c-0.8,0-1.6,0-2.5,0C486.4,39.8,486.3,36.7,486.3,33.7z M506.6,48.6
				c-0.6,1.2-1.2,2.5-1.7,3.7c7.4-0.1,14.7-0.1,22.1-0.1c0,4,0,8,0,11.9c-0.8,0-1.7,0-2.5,0c0-0.5,0-1.1,0-1.6
				c-10.3,0-20.6,0.1-30.9,0.2c0,0.6,0,1.1,0,1.7c-0.8,0-1.6,0-2.4,0c-0.1-4-0.1-8-0.2-12c3.9-0.1,7.7-0.1,11.6-0.2
				c0.5-1.1,1-2.4,1.5-3.7c-3.3,0-6.5,0.1-9.8,0.1c-0.1-3.2-0.1-6.3-0.2-9.5c9.6-0.2,19.3-0.2,28.9-0.2c0,3.2,0,6.3,0,9.5
				C517.5,48.6,512,48.6,506.6,48.6z M524.5,54.3c-10.4,0-20.7,0.1-31.1,0.2c0,2,0.1,4.1,0.1,6.1c10.3-0.2,20.6-0.2,31-0.2
				C524.5,58.4,524.5,56.4,524.5,54.3z M496.6,46.7c7.9-0.1,15.9-0.2,23.8-0.2c0-1.8,0-3.6,0-5.4c-8,0-15.9,0.1-23.9,0.2
				C496.6,43.1,496.6,44.9,496.6,46.7z M507.1,20.1c-1.6,1.9-3.4,4-4.8,5.3c-0.6-0.3-1.2-0.6-1.7-0.8c1.4-1.5,3.3-3.9,4.3-5.4
				C505.6,19.4,506.3,19.7,507.1,20.1z M529.5,33.3c-2.5-1.9-7.1-4.7-11.1-6.8c-1.9,2.8-5,4.6-10,5.9c-0.3-0.5-0.9-1.4-1.5-1.9
				c9-2.2,11.3-6.2,11.8-14.2c0.8,0,1.7,0,2.5,0c-0.3,3.3-0.8,6-1.8,8.2c4.1,2.1,9,5,11.6,7C530.5,32.1,530,32.7,529.5,33.3z
				 M513,24c-0.9-1.4-2.8-3.7-4.3-5.3c0.5-0.4,1.1-0.8,1.6-1.2c1.6,1.6,3.4,3.8,4.3,5.1C514.1,23,513.6,23.5,513,24z M530.8,19.9
				c-1.7,1.9-3.8,4.1-5.4,5.5c-0.6-0.3-1.2-0.6-1.7-1c1.6-1.5,3.7-4,4.9-5.6C529.3,19.2,530,19.6,530.8,19.9z"/>
		</g>
		<g>
			<path class="st1" d="M574.5,35.7c3.4,4.3,9.1,8.1,14.6,10c-0.6,0.5-1.4,1.3-1.8,1.9c-5.9-2.3-12.1-6.9-15.6-12
				c-4.5-0.1-9.1-0.2-13.6-0.3c-4.1,5.1-10.5,9.3-16.5,12c-0.3-0.5-1.3-1.4-1.9-1.9c5.7-2.3,11.5-5.9,15.3-10.2
				c-4.7-0.1-9.4-0.2-14.1-0.2c0-0.7,0-1.4,0-2.1c7.5,0.1,14.9,0.2,22.4,0.4c0-1.1,0.1-2.3,0.1-3.4c-5.3-0.1-10.7-0.2-16-0.3
				c0-0.7,0-1.3,0-2c5.3,0.1,10.7,0.2,16,0.3c0-1.1,0-2.1,0.1-3.2c-6.4-0.2-12.7-0.3-19.1-0.4c0-0.7,0-1.4,0-2.1
				c3.7,0,7.3,0.1,11,0.2c-1-1.6-2.4-3.6-3.5-5.1c0.8-0.3,1.5-0.6,2.3-0.9c1.5,1.9,3.3,4.5,4.2,6c4.4,0.1,8.8,0.2,13.2,0.3
				c1.3-1.6,3-4.2,3.9-5.9c0.9,0.3,1.7,0.7,2.6,1c-1.1,1.7-2.5,3.6-3.6,5c3.7,0.1,7.3,0.2,11,0.4c0,0.7-0.1,1.4-0.1,2.1
				c-6.4-0.2-12.8-0.4-19.2-0.6c0,1.1-0.1,2.1-0.1,3.2c5.4,0.1,10.7,0.3,16.1,0.5c0,0.7,0,1.3-0.1,2c-5.3-0.2-10.7-0.3-16-0.5
				c0,1.1-0.1,2.3-0.1,3.4c7.5,0.2,15,0.4,22.5,0.7c0,0.7-0.1,1.4-0.1,2.1C583.8,36,579.2,35.8,574.5,35.7z M562.8,58.4
				c0,0.6,0.1,1.6,0.2,2.1c-10.8,2.9-12.2,3.3-13,3.9c-0.2-0.6-0.7-1.8-1.1-2.3c0.7-0.3,1.8-0.9,1.8-2.9c0.1-5.5,0.2-11,0.3-16.5
				c9,0.2,17.9,0.4,26.9,0.7c-0.1,4-0.3,7.9-0.4,11.9c-8-0.3-16-0.5-24.1-0.6c0,2.1-0.1,4.1-0.1,6.2C556.5,60,559.6,59.2,562.8,58.4
				z M553.6,44.6c0,1,0,2-0.1,3c7.2,0.1,14.4,0.3,21.6,0.5c0-1,0.1-2,0.1-3C568,44.9,560.8,44.7,553.6,44.6z M575,53.2
				c0-1.1,0.1-2.1,0.1-3.2c-7.2-0.2-14.4-0.4-21.6-0.5c0,1.1,0,2.2-0.1,3.2C560.6,52.8,567.8,53,575,53.2z M572.3,38.4
				c0,0.6,0,1.2-0.1,1.8c-5.1-0.2-10.3-0.3-15.4-0.4c0-0.6,0-1.2,0-1.8C562.1,38.1,567.2,38.3,572.3,38.4z M584.8,55.3
				c-2.8,1.5-6.5,3-9.8,4.1c3.6,1.5,7,2.9,9.4,4c-0.4,0.7-0.8,1.3-1.1,2c-4.7-2.3-13.6-6.1-20.4-8.5c0.4-0.5,0.8-1.1,1.2-1.6
				c2.7,0.9,5.6,2,8.6,3.1c3.5-1.3,7.9-3.2,10.6-4.7C583.7,54.3,584.2,54.8,584.8,55.3z"/>
		</g>
		<g>
			<path class="st1" d="M643.9,57.7c-7.3-0.5-14.6-1-21.9-1.4c-0.1,2.5-0.3,5-0.4,7.5c-0.1,1.6-0.6,2.2-1.9,2.6
				c-1.4,0.3-3.9,0.1-8.3-0.1c-0.1-0.7-0.5-1.5-0.8-2.2c3.6,0.3,6.6,0.5,7.3,0.4c0.9,0,1.1-0.2,1.2-0.9c0.1-2.5,0.3-5,0.4-7.5
				c-7.6-0.4-15.1-0.8-22.7-1.1c0-0.8,0.1-1.5,0.1-2.3c7.6,0.3,15.1,0.7,22.7,1.1c0.1-0.9,0.1-1.9,0.2-2.8c3.5-0.9,7.5-2.4,10.5-3.9
				c-7.8-0.5-15.6-0.9-23.3-1.3c0-0.7,0.1-1.4,0.1-2.1c8.8,0.4,17.5,0.9,26.3,1.5c0.2,0,0.4-0.1,0.6-0.1c0.5,0.5,1,0.9,1.5,1.4
				c-3.5,2.4-8.7,4.5-13.2,5.7c0,0.6-0.1,1.1-0.1,1.7c7.3,0.4,14.6,0.9,22,1.4C644,56.2,643.9,57,643.9,57.7z M601,45.9
				c-0.8,0-1.6-0.1-2.5-0.1c0.1-3,0.3-6,0.4-9c1.5,0.1,2.9,0.1,4.4,0.2c-0.1-5.3-0.2-10.6-0.3-15.8c3.1-0.3,7.7-1.3,10.4-1.9
				c0.4,0.6,0.8,1.2,1.2,1.8c-2.5,0.8-6.1,1.3-9.1,1.6c0,1.1,0,2.2,0.1,3.3c2.8,0.1,5.6,0.3,8.4,0.4c0,0.7-0.1,1.3-0.1,2
				c-2.8-0.1-5.5-0.3-8.3-0.4c0,1.2,0,2.4,0,3.5c2.8,0.1,5.6,0.3,8.4,0.4c0,0.7-0.1,1.3-0.1,2c-2.7-0.1-5.5-0.3-8.2-0.4
				c0,1.2,0,2.4,0,3.6c10.4,0.5,20.8,1.1,31.3,1.8c0.2-1.1,0.4-2.3,0.7-3.6c-2.9-0.2-5.8-0.4-8.7-0.6c0-0.7,0.1-1.3,0.1-2
				c2.9,0.2,5.9,0.4,8.8,0.6c0.2-1.2,0.4-2.3,0.5-3.5c-3-0.2-5.9-0.4-8.9-0.6c0-0.7,0.1-1.3,0.1-2c3,0.2,6,0.4,9,0.6
				c0.1-1.2,0.3-2.3,0.4-3.4c-3.2-0.2-6.3-0.4-9.5-0.6c0-0.7,0.1-1.4,0.1-2.1c4,0.2,8,0.5,12.1,0.8c-0.6,5.2-1.6,12-2.4,16.5
				c1.4,0.1,2.9,0.2,4.3,0.3c-0.2,3-0.4,6-0.6,9c-0.9-0.1-1.7-0.1-2.6-0.2c0.2-2.3,0.3-4.5,0.5-6.8c-13.3-0.9-26.6-1.7-39.9-2.3
				C601.2,41.4,601.1,43.6,601,45.9z M625.9,37.6c-1-1.1-2.5-2.3-4.1-3.6c-2,1.4-4,2.5-5.9,3.4c-0.3-0.4-1.1-1.2-1.6-1.6
				c1.9-0.8,3.9-1.8,5.7-3c-1.4-1-2.8-1.9-4.2-2.6c0.5-0.4,1-0.8,1.5-1.2c1.4,0.7,2.9,1.6,4.5,2.6c1.2-0.9,2.3-1.9,3.1-2.9
				c0.7,0.3,1.4,0.5,2.1,0.8c-1,1.2-2.3,2.2-3.6,3.3c1.6,1.2,3.1,2.4,4,3.4C626.9,36.7,626.4,37.2,625.9,37.6z M626.4,28.3
				c-1-1-2.5-2.2-4.1-3.3c-1.9,1.3-3.8,2.4-5.6,3.2c-0.3-0.4-1.1-1.1-1.7-1.5c1.9-0.8,3.7-1.8,5.4-2.8c-1.4-0.9-2.8-1.7-4.2-2.3
				c0.5-0.4,1-0.9,1.5-1.3c1.4,0.7,2.9,1.5,4.4,2.4c1.1-0.8,2.2-1.8,3-2.7c0.7,0.2,1.3,0.4,2,0.6c-1,1.1-2.1,2.2-3.4,3.2
				c1.6,1,3.1,2.2,4.1,3.1C627.4,27.4,626.9,27.8,626.4,28.3z"/>
		</g>
	</g>
	<g>
		<g>
			<g>
				<path class="st3" d="M483.5,115.1l-4.9,18.7c0,0,0,6.5,32.9,14.9s35.9,2.6,35.9,2.6l5.1-19.7l-69-17.7"/>
			</g>
			<g>
				<polygon class="st4" points="572.9,132.7 522.9,104.6 521.7,104.3 464.3,104.9 514.1,133 515.7,133.4 				"/>
			</g>
			<g>
				
					<ellipse transform="matrix(0.2485 -0.9686 0.9686 0.2485 275.6489 591.6865)" class="st3" cx="519.1" cy="118.2" rx="1.7" ry="5.8"/>
			</g>
			<g>
				<polygon class="st5" points="543,166.9 541.1,132.2 519.5,118.3 520.2,117.3 542.3,131.5 544.2,166.8 				"/>
			</g>
			<g>
				<path class="st5" d="M547.2,169.1c0,1.3-1.6,2.3-3.6,2.3s-3.7-1-3.7-2.3s1.6-2.3,3.6-2.3S547.2,167.8,547.2,169.1z"/>
			</g>
			<g>
				<path class="st5" d="M546.6,173.6c-1.7-3.1-4.4-3-6,0c-1.6,3.1-0.3,5.6,3.1,5.6C546.9,179.2,548.2,176.7,546.6,173.6z"/>
			</g>
			<g>
				
					<ellipse transform="matrix(0.2485 -0.9686 0.9686 0.2485 275.6489 591.6865)" class="st4" cx="519.1" cy="118.2" rx="1.3" ry="4.5"/>
			</g>
		</g>
		<g class="st6">
			<g>
				<path class="st7" d="M521.6,104.2l-57.4,0.6l19.1,10.8l-4.8,18.2c0,0,0,6.4,32.3,14.8l11.3-44.2L521.6,104.2z"/>
			</g>
		</g>
	</g>
	<g>
		<g>
			
				<rect x="31.3" y="273.2" transform="matrix(0.81 -0.5865 0.5865 0.81 -154.168 76.9167)" class="st8" width="20.7" height="6.3"/>
		</g>
		<g>
			<g>
				<path class="st8" d="M77.6,280.5c11.1-7.8,13.7-23,6-34c-7.8-11.1-23-13.7-34-6s-13.7,23-6,34C51.2,285.5,66.5,288.2,77.6,280.5
					z M46.1,272.7c-6.8-9.6-4.4-22.9,5.2-29.7c9.6-6.8,22.9-4.4,29.7,5.2s4.4,22.9-5.2,29.7C66.1,284.6,52.8,282.3,46.1,272.7z"/>
			</g>
		</g>
		<g>
			<path class="st9" d="M7.5,300.8c-2.1-2.9-1.4-7,1.5-9l21.5-15.3c2.9-2.1,7-1.4,9,1.5l0,0c2.1,2.9,1.4,7-1.5,9l-21.5,15.3
				C13.6,304.4,9.5,303.7,7.5,300.8L7.5,300.8z"/>
		</g>
		<g class="st10">
			<path class="st1" d="M80.8,248.1c0-0.1-0.1-0.2-0.2-0.3l-30.8,22.3l-3.6,2.7c0.6,0.9,1.3,1.7,2.1,2.4c7.2,7.3,18.8,8.6,27.4,2.5
				C85.3,271,87.5,257.7,80.8,248.1z"/>
		</g>
		<g>
			<path class="st11" d="M40.6,280.7c-0.2-1-0.5-2-1.2-2.8c0-0.1-0.1-0.1-0.2-0.2l-6.2,4.5L7.4,300.8c2.1,2.8,6.1,3.5,9,1.4
				L37.8,287C39.9,285.5,40.9,283.1,40.6,280.7z"/>
		</g>
	</g>
	<g>
		<g>
			<path class="st1" d="M961,123.2c0,16.6-13.4,30.1-30.1,30.2c-16.6,0-30.1-13.4-30.2-30.1c0-16.6,13.4-30.1,30.1-30.2
				C947.5,93.1,961,106.6,961,123.2z"/>
		</g>
		<g>
			<g>
				<path class="st12" d="M930.9,155c-17.5,0-31.7-14.2-31.7-31.7s14.2-31.8,31.7-31.8s31.8,14.2,31.8,31.7S948.5,155,930.9,155
					L930.9,155z M930.9,94.8c-15.8,0-28.5,12.8-28.5,28.6c0,15.7,12.8,28.4,28.5,28.4v1.6l0.1-1.6c15.7,0,28.5-12.8,28.4-28.6
					C959.4,107.5,946.6,94.8,930.9,94.8z"/>
			</g>
		</g>
		<g>
			<path class="st12" d="M934.6,84.8c0,0.5-0.4,1-1,1h-5.9c-0.5,0-1-0.4-1-1v-3c0-0.5,0.4-1,1-1h5.9c0.5,0,1,0.4,1,1V84.8z"/>
		</g>
		<g>
			
				<rect x="929.6" y="85.4" transform="matrix(1 -1.642791e-03 1.642791e-03 1 -0.1442 1.5292)" class="st12" width="2.4" height="6.3"/>
		</g>
		<g>
			<g>
				<path class="st12" d="M930.7,91.1c-4.7,0-8.6-3.8-8.6-8.5s3.8-8.6,8.5-8.6s8.6,3.8,8.6,8.5C939.3,87.2,935.4,91.1,930.7,91.1
					L930.7,91.1z M930.7,75.6c-3.8,0-7,3.1-6.9,7c0,3.8,3.1,6.9,6.9,6.9v0.8v-0.8c3.8,0,6.9-3.1,6.9-7
					C937.6,78.7,934.5,75.6,930.7,75.6z"/>
			</g>
		</g>
		<g>
			<path class="st12" d="M935.6,123.3c0,2.6-2.1,4.8-4.8,4.8c-2.6,0-4.8-2.1-4.8-4.8c0-2.6,2.1-4.8,4.8-4.8
				C933.4,118.5,935.6,120.7,935.6,123.3z"/>
		</g>
		<g>
			<polygon class="st12" points="945.8,109.3 934.7,122.2 932.6,120.1 			"/>
		</g>
		<g>
			<path class="st12" d="M953.2,124c-0.4,0-0.8-0.4-0.8-0.8l0,0c0-0.4,0.4-0.8,0.8-0.8h3.5c0.4,0,0.8,0.4,0.8,0.8l0,0
				c0,0.4-0.4,0.8-0.8,0.8H953.2z"/>
		</g>
		<g>
			<path class="st12" d="M904.6,124c-0.4,0-0.8-0.4-0.8-0.8l0,0c0-0.4,0.4-0.8,0.8-0.8h3.5c0.4,0,0.8,0.4,0.8,0.8l0,0
				c0,0.4-0.4,0.8-0.8,0.8H904.6z"/>
		</g>
		<g>
			<path class="st12" d="M931.4,100.6c0,0.4-0.4,0.8-0.8,0.8l0,0c-0.4,0-0.8-0.4-0.8-0.8v-3.5c0-0.4,0.4-0.8,0.8-0.8l0,0
				c0.4,0,0.8,0.4,0.8,0.8V100.6z"/>
		</g>
		<g>
			<path class="st12" d="M931.4,149.2c0,0.4-0.4,0.8-0.8,0.8l0,0c-0.4,0-0.8-0.4-0.8-0.8v-3.5c0-0.4,0.4-0.8,0.8-0.8l0,0
				c0.4,0,0.8,0.4,0.8,0.8V149.2z"/>
		</g>
	</g>
</g>
</svg>
