<?xml version="1.0" encoding="utf-8"?>
<!-- Generator: Adobe Illustrator 26.3.1, SVG Export Plug-In . SVG Version: 6.00 Build 0)  -->
<svg version="1.1" id="圖層_1" xmlns="http://www.w3.org/2000/svg" xmlns:xlink="http://www.w3.org/1999/xlink" x="0px" y="0px"
	 viewBox="0 0 900 110" style="enable-background:new 0 0 900 110;" xml:space="preserve" width="300" height="37">
<style type="text/css">
	.st0{fill:#E40000;}
	.st1{fill:#FFFFFF;}
</style>
<g>
	<rect x="5.9" y="29.8" class="st0" width="318.2" height="62.7"/>
	<g>
		<g>
			<g>
				<path class="st0" d="M445.4,85.9c4.3,0,5-2,5.5-10.3c0.9,0.6,2.3,1.3,3.4,1.5c-0.8,9.1-2,12-8.9,12H426c-7.4,0-9.5-1.5-9.5-8
					v-12l-23.7,3.2l-0.6-3.2l24.3-3.2V53.2l-21.7,3.1l-0.6-3.2l22.3-3.2V37.8c-7.4,1.4-15.1,2.5-22.3,3.5c-0.1-0.8-0.5-2.1-0.9-2.9
					c17.4-2.4,37.7-6.2,48.2-10.6l3,2.6c-6.4,2.6-15.3,4.9-24.7,6.7v12.5l27.5-3.9l0.6,3.1l-28.1,4v12.8l32.6-4.3l0.4,3.1l-33,4.4
					v12.5c0,3.6,1.1,4.6,6.1,4.6L445.4,85.9L445.4,85.9z"/>
				<path class="st0" d="M445.2,89.6h-19.4c-7.7,0-9.9-1.8-9.9-8.3V69.7l-23.7,3.1l-0.7-3.8l24.3-3.2V53.7l-21.6,3.1l-0.7-3.8
					l22.3-3.2V38.2c-7.5,1.4-15.3,2.5-21.9,3.4h-0.3v-0.3c-0.1-0.8-0.4-2-0.9-2.7l-0.2-0.4l0.5-0.1c10.3-1.4,35.6-5.3,48.1-10.6
					l0.2-0.1l3.6,3.1l-0.5,0.2c-6.1,2.4-14.6,4.8-24.5,6.7v11.9l27.5-3.8l0.7,3.7l-28.1,4v12.1l32.5-4.3l0.5,3.8l-33,4.4v12.2
					c0,3.3,0.8,4.3,5.8,4.3h19.5c3.9,0,4.6-1.5,5.1-10v-0.6l0.5,0.3c0.8,0.6,2.2,1.2,3.3,1.5l0.3,0.1v0.3
					C453.8,86,452.7,89.6,445.2,89.6z M416.7,68.9v12.3c0,6.1,1.9,7.6,9.2,7.6h19.4c6.5,0,7.8-2.6,8.5-11.5
					c-0.9-0.3-1.9-0.7-2.7-1.2c-0.5,8-1.3,10-5.8,10h-19.5c-5.1,0-6.4-1-6.4-5V68.3h0.3l32.6-4.4l-0.3-2.5l-32.6,4.3V52.2l28-4
					l-0.4-2.4l-27.6,3.9V36.8l0.3-0.1c9.7-1.9,18.1-4.1,24.1-6.5l-2.4-2.1c-12.5,5.3-37.1,9.1-47.7,10.5c0.3,0.7,0.6,1.6,0.7,2.2
					c6.6-0.9,14.4-2,21.9-3.5l0.4-0.1v12.9l-22.2,3.2l0.4,2.5l21.8-3.1v13.4l-24.2,3.2l0.4,2.5L416.7,68.9z"/>
			</g>
			<g>
				<path class="st0" d="M490.9,47.2c-1,2.4-2,4.9-3.1,6.9h9.9v2.8h-32.8v-2.8h8.8c-0.4-2-1.4-5-2.3-7.2l1.9-0.4h-6.7v-2.7H481
					c-0.8-1.6-2-3.4-3-4.9l2.7-0.6c1.4,1.6,2.8,3.8,3.6,5.5h12.1v2.7h-7.6L490.9,47.2z M493,86.6c0,1.9-0.4,2.7-1.8,3.3
					c-1.5,0.5-3.9,0.5-7.8,0.5c-0.1-0.8-0.6-2-1.1-2.8c3.1,0.1,5.7,0.1,6.4,0.1c0.8-0.1,1.1-0.3,1.1-1v-8.8c-5.7,2-11.4,4-16,5.4
					l-1.3-2.6c4.6-1.1,10.9-3.1,17.4-5.1v-12h-17.6v9.1c0,5.6-0.6,13.2-4.2,18.7c-0.5-0.7-1.6-1.7-2.2-2.1c3.1-5,3.5-11.6,3.5-16.7
					V60.9h23.7v25.7H493z M469.5,42h-3.2v-9.8h28.9c-0.8-1.6-1.9-3.4-3-4.8l3.2-0.8c1.5,1.6,2.8,3.8,3.7,5.5h26.5v9.8h-3.2v-6.8
					h-52.9V42z M475,67.2c4.2,0.9,9.5,2.4,12.5,3.5l-0.8,2.2c-3-1-8.4-2.7-12.6-3.8L475,67.2z M474.2,46.5c1.1,2.3,2.2,5.4,2.5,7.3
					l-1.3,0.4h9.2c1-2.2,2.4-5.5,3.1-7.6h-13.5V46.5z M521.5,87.3c2.4,0,2.8-0.8,3.1-5.3c0.8,0.5,2,0.9,2.9,1.2
					c-0.5,5.5-1.5,7-5.8,7h-13.5c-5.5,0-7.1-1-7.1-5.2V59.4H521v-5.5h-19.8V39.1h3.2V44H525v2.7h-20.6v4.6H524V62h-19.7v4.2h18.3
					v2.5h-18.3v4.1h18.1v2.5h-18.1v4.1H525v2.5h-20.7v3.2c0,2,0.5,2.4,4,2.4h13.2V87.3z"/>
				<path class="st0" d="M468,91.9l-0.3-0.4c-0.5-0.7-1.6-1.6-2.2-2l-0.3-0.2l0.2-0.3c3.1-4.9,3.5-11.4,3.5-16.5v-12h24.3v26
					c0,2-0.5,3-2,3.6c-1.5,0.5-3.9,0.5-7.9,0.5H483v-0.3c-0.1-0.6-0.5-1.6-1-2.7l-0.2-0.5h0.6c2,0,4.2,0.1,6.4,0.1
					c0.7-0.1,0.7-0.2,0.7-0.6v-8.3l-2.2,0.8c-4.9,1.7-9.5,3.3-13.4,4.5l-0.3,0.1l-1.6-3c-0.6,4.4-1.9,8-3.7,10.9L468,91.9z
					 M466.2,89.1c0.5,0.4,1.3,1,1.8,1.6c2.6-4.3,3.9-10.2,3.9-18.1v-9.4h18.2v12.6l-0.2,0.1c-6.1,1.9-12.4,3.9-17,5l1,2
					c3.8-1.2,8.3-2.7,13.1-4.4l3.1-1.1v9.2c0,1-0.5,1.2-1.4,1.3c-2,0-4,0-5.9-0.1c0.3,0.7,0.6,1.4,0.8,2.1c3.6,0,6,0,7.4-0.5
					c1.2-0.5,1.5-1.2,1.5-3V61h-23v11.4C469.5,77.7,469.2,84.1,466.2,89.1z M472.5,63.9v8.8c0,2.8-0.2,5.4-0.5,7.8l0.3-0.1
					c4.6-1.1,10.9-3.1,17.1-5V63.9H472.5z M521.8,90.5h-13.5c-5.3,0-7.5-0.8-7.5-5.6V59h19.8v-4.8h-19.8V38.8h3.9v4.9h20.6V47h-20.6
					v4h19.7v11.4h-19.7v3.5H523V69h-18.3v3.5h18.1v3.1h-18.1V79h20.7v3.1c0.8,0.4,1.8,0.7,2.3,0.9l0.3,0.1v0.3
					C527.5,88.6,526.5,90.5,521.8,90.5z M501.5,59.7v25.2c0,4,1.3,4.9,6.8,4.9h13.5c3.9,0,5-1.1,5.5-6.4c-0.6-0.2-1.5-0.5-2.3-0.9
					c-0.3,4-0.8,5-3.4,5h-13.2c-3.3,0-4.3-0.4-4.3-2.7v-3.5h20.7v-1.8H504v-4.7h18.1V73H504v-4.8h18.3v-1.8h-18.3v-4.9h19.7v-10
					h-19.7v-5.3h20.6v-2h-20.6v-4.9h-2.6v14.2h19.8v6.1h-19.8V59.7z M504.7,82.1v2.8c0,1.6,0.1,2,3.7,2h13.2c2,0,2.5-0.4,2.7-4.9
					h-19.6V82.1z M486.8,73.4l-0.3-0.1c-3.2-1.1-8.5-2.8-12.6-3.8l-0.4-0.1l1.3-2.6l0.3,0.1c4.4,1,9.7,2.4,12.5,3.5l0.3,0.1
					L486.8,73.4z M474.5,69c3.9,1,8.8,2.5,11.9,3.6L487,71c-2.8-1-7.7-2.4-11.9-3.3L474.5,69z M498,57.2h-33.4v-3.4h8.7
					c-0.4-2.1-1.4-4.9-2.2-6.8l-0.1-0.2h-4.8v-3.4h14.1c-0.8-1.6-1.9-3.2-2.7-4.4l-0.3-0.4l3.4-0.8l0.1,0.1c1.5,1.7,2.8,3.9,3.6,5.4
					h12.2v3.4h-5.9l0.5,0.2l-0.1,0.3c-0.3,0.8-0.7,1.5-1,2.3c-0.6,1.5-1.2,2.9-1.9,4.2h9.7v3.5H498z M465.2,56.6h32.1v-2.1h-10.2
					l0.2-0.5c0.7-1.4,1.4-3,2.1-4.6c0.3-0.7,0.6-1.3,0.8-2l-2.3-0.8c-0.8,2.3-2.1,5.6-3.1,7.6l-0.1,0.2h-19.6L465.2,56.6L465.2,56.6
					z M471.8,47.1c0.8,2,1.8,4.9,2.2,6.9v0.1l2.4-0.7c-0.3-1.8-1.3-4.7-2.4-6.9L471.8,47.1z M477,53.8h7.4c0.9-1.9,2.1-4.8,2.8-7
					h-12.5C475.9,49.1,476.8,51.9,477,53.8L477,53.8z M488.2,46.1h7.8V44h-12l-0.1-0.2c-0.7-1.4-2-3.6-3.5-5.3l-2.1,0.5
					c0.9,1.3,2,3,2.8,4.5l0.2,0.5h-14.5v2.1H488.2z M525.9,42.3H522v-6.8h-52.2v6.8H466V31.8h28.7c-0.7-1.4-1.7-2.9-2.7-4.2
					l-0.3-0.4l3.8-0.9l0.1,0.1c1.6,1.8,3,4.1,3.7,5.4h26.6V42.3z M522.6,41.6h2.6v-9.1h-26.3l-0.1-0.2c-0.6-1.2-1.9-3.5-3.5-5.3
					l-2.5,0.6c1.1,1.4,2,3,2.7,4.4l0.2,0.5h-29.1v9.1h2.5v-6.8h53.5V41.6z"/>
			</g>
			<g>
				<path class="st0" d="M554,61.4c-0.8,6-2.4,11.1-4.3,15.5c4.8,8.3,14.2,9.5,28.6,9.5c7.3,0,16.7-0.2,23.4-0.8
					c-0.5,0.8-0.8,2.4-1.1,3.3c-6.2,0.4-14.9,0.5-22.3,0.5c-15.1,0-24.4-1.4-30-9.7c-2.5,4.7-5.5,8.3-9,10.9c-0.6-0.8-1.7-2-2.5-2.5
					c6.4-4.6,11.3-12.8,13.4-24.4h-7.7c-1.8,0-3.4,0.4-4,1c-0.2-0.9-1-2.7-1.5-3.5c1-0.3,2.1-0.8,3.1-2c1.7-1.8,6.3-8.7,9.2-13.1
					h-11.6v-2.9h13.6l0.8-0.3l2.5,1.1c-2.8,4.2-8.1,12.1-11.9,16.8h8.9l0.7-0.1L554,61.4z M548.9,39.9c-1.7-2.9-5.3-7.8-8.1-11.3
					l2.5-1.5c3.1,3.6,6.6,8.2,8.3,11.1L548.9,39.9z M599.1,45.1h-43.3v-2.8h19.7V36h-15.6v-2.8h15.6v-6h3.4v6h15.5V36h-15.5v6.3
					h20.2L599.1,45.1L599.1,45.1z M575.8,84v-9h-19.3v-2.8h19.3v-6.3h-16v-2.8h16v-5.8h-18.1v-2.8h40.6v2.8H579v5.8h16.4v2.8H579
					v6.3h20V75h-20v9H575.8z M567,45.6c1.7,2.3,3.3,5.4,3.8,7.6l-3.1,0.8c-0.5-2-2-5.3-3.7-7.6L567,45.6z M590.3,46.4
					c-1.5,2.7-3.1,5.8-4.5,7.8l-2.6-0.9c1.3-2.3,3-5.7,3.9-8L590.3,46.4z"/>
				<path class="st0" d="M539.4,91l-0.2-0.3c-0.6-0.8-1.6-1.9-2.4-2.4l-0.4-0.3l0.4-0.3C543.4,83,548,74.8,550,63.9h-7.3
					c-1.8,0-3.3,0.4-3.8,0.9l-0.4,0.4l-0.1-0.6c-0.2-0.9-1-2.7-1.4-3.4l-0.2-0.4l0.4-0.1c0.8-0.2,1.9-0.7,2.9-1.9
					c1.7-1.8,6.2-8.5,8.8-12.5h-11.3v-3.5h13.8l0.8-0.4l3,1.3L555,44c-1.9,2.8-7.5,11.2-11.5,16.3h8.2l0.8-0.1l1.9,0.8v0.2
					c-0.8,5.5-2.2,10.7-4.2,15.5c4.6,7.7,13.4,9.2,28.2,9.2c4.4,0,15.4-0.1,23.4-0.8l0.6-0.1l-0.3,0.6c-0.5,0.8-0.8,2.3-1,3.1
					l-0.1,0.2l-0.3,0.1c-5.5,0.3-13.7,0.5-22.4,0.5c-15.4,0-24.4-1.5-29.9-9.4c-2.3,4.3-5.3,7.8-8.8,10.5L539.4,91z M537.5,88.1
					c0.7,0.5,1.4,1.3,1.9,2c3.5-2.8,6.4-6.3,8.6-10.6l0.3-0.5l0.3,0.5c5.4,8.1,14.2,9.6,29.7,9.6c8.5,0,16.5-0.2,22.1-0.5
					c0.2-0.8,0.4-1.8,0.8-2.6c-8,0.7-18.6,0.8-22.8,0.8c-15.1,0-24.2-1.5-28.9-9.7l-0.1-0.1l0.1-0.2c2-4.7,3.4-9.8,4.2-15.2
					l-1.3-0.6l-0.6,0.1h-9.6l0.4-0.5c3.9-4.8,9.5-13.2,11.7-16.5l-2-0.9l-0.8,0.3h-13.2v2.3h11.9l-0.3,0.5c-2.6,4-7.4,11.2-9.2,13.1
					c-0.9,1.1-2,1.7-2.8,1.9c0.4,0.7,0.9,1.9,1.2,2.8c0.8-0.5,2.3-0.8,3.8-0.8h8.1l-0.1,0.4C548.6,74.8,544.1,83.2,537.5,88.1z
					 M579.4,84.3h-4v-9H556v-3.5h19.3v-5.6h-16v-3.4h16v-5.1h-18.1v-3.5h10.1l0,0c-0.5-1.9-1.9-5.1-3.7-7.4l-0.3-0.4l3.2-1h-11.1
					v-3.5h19.7v-5.6h-15.6v-3.5h15.6v-6h4v6h15.5v3.5h-15.5v5.6h20.2v3.5h-10.9l2.3,0.8l-0.2,0.3c-0.4,0.8-0.9,1.6-1.3,2.4
					c-1.1,2-2.1,3.8-3.1,5.2h12.4v3.5h-19.3v5.1h16.4v3.5h-16.4v5.6h20v3.5h-20L579.4,84.3L579.4,84.3z M576,83.6h2.6v-9h20v-2.1
					h-20v-7H595v-2.1h-16.4v-6.5H598v-2.1H558v2.1h18.1v6.5h-16v2.1h16v7h-19.3v2.1h19.3L576,83.6L576,83.6z M568.6,54.2h16.2
					l-2.1-0.7l0.2-0.3c1.3-2.3,2.9-5.5,3.7-7.7h-19.4l0,0c1.8,2.5,3.4,5.6,3.8,7.8l0.1,0.3L568.6,54.2z M583.6,53.1l2,0.7
					c0.9-1.4,1.9-3.2,3-5.1c0.4-0.7,0.8-1.4,1.1-2.1l-2.5-0.9C586.5,47.8,585,50.8,583.6,53.1z M564.5,46.7c1.6,2.3,2.9,5.1,3.4,7
					l2.4-0.7c-0.5-2-1.9-4.7-3.5-7L564.5,46.7z M556.3,44.7h42.6v-2.1h-20.2v-7h15.5v-2.1h-15.5v-6H576v6h-15.6v2.1H576v7h-19.7
					L556.3,44.7L556.3,44.7z M548.8,40.3l-0.2-0.3c-1.7-3.1-5.4-8-8-11.3l-0.2-0.3l3.1-1.8l0.2,0.2c3.3,3.8,6.7,8.4,8.3,11.1
					l0.2,0.3L548.8,40.3z M541.3,28.6c2.5,3.2,5.9,7.8,7.7,10.8l2.2-1.4c-1.6-2.7-4.8-6.9-7.9-10.5L541.3,28.6z"/>
			</g>
			<g>
				<path class="st0" d="M644.9,27.4c-0.1,2.2-0.1,5.6-0.4,9.6c1,7,5.1,39,30.3,50.2c-0.9,0.7-1.9,1.8-2.5,2.7
					C653,81.1,646,60.5,643,47.4c-2.7,14.9-9.9,33.1-28.9,42.7c-0.6-0.8-1.8-1.8-2.6-2.5C641,73.2,641,37.3,641.3,27.3L644.9,27.4
					L644.9,27.4z"/>
				<path class="st0" d="M614,90.6l-0.2-0.2c-0.6-0.8-1.7-1.8-2.5-2.4l-0.4-0.3l0.5-0.2c19.2-9.4,29.2-29.5,29.6-59.6v-0.7h4.2v0.3
					c0,0.5,0,1,0,1.6c0,2.2-0.1,4.9-0.4,8v0.2c4.5,32,18.8,44.6,30.1,49.6l0.5,0.2l-0.4,0.3c-0.8,0.6-1.8,1.7-2.4,2.6l-0.2,0.2
					l-0.3-0.1C657.8,83.5,648,69.7,643,48.9c-4,19.8-13.7,33.8-28.8,41.4L614,90.6z M612.1,87.8c0.7,0.6,1.5,1.3,2.1,2
					c15.2-7.8,24.8-22,28.5-42.3l0.3-1.6l0.4,1.6c4.8,21.3,14.5,35.5,28.8,42.1c0.5-0.8,1.2-1.6,2-2.2c-11.3-5.2-25.5-18.1-30-49.9
					v-0.3c0.3-3.2,0.3-5.9,0.4-8c0-0.5,0-0.9,0-1.3h-2.9c-0.1,5.4-0.2,16.7-4,28.6C633,71.1,624.4,81.6,612.1,87.8z"/>
			</g>
			<g>
				<path class="st0" d="M719.5,51.2c5,16.5,14.7,30.1,28.4,36.1c-0.9,0.8-1.9,2.2-2.5,3.2c-14.1-6.7-23.7-20.7-29.1-38.2
					c-2.9,14.6-10.4,30-29,38.3c-0.6-0.9-1.6-2.1-2.5-2.7c18.2-7.8,25.3-22.6,28.3-36.5h-27V48h27.6c1.3-8,1.3-15.4,1.3-20.7h3.5
					c-0.1,5.5-0.1,12.8-1.3,20.7H747v3.4h-27.5V51.2z"/>
				<path class="st0" d="M687.1,90.9l-0.2-0.2c-0.6-0.9-1.6-2.1-2.4-2.6l-0.5-0.3l0.6-0.2c15-6.4,24.2-18.1,28-35.9h-26.9v-4h27.6
					c1.1-7.3,1.2-14.2,1.3-19.2V27h4.2v0.7c-0.1,5.3-0.2,12.4-1.3,20.1h29.8v4H720c5.4,17.3,15.4,29.9,28.1,35.4l0.5,0.2l-0.4,0.3
					c-0.9,0.7-1.8,2.1-2.5,3.1l-0.2,0.2l-0.3-0.1c-13.1-6.3-23.1-19.1-28.9-37.2c-3.9,17.9-13.7,30.5-28.9,37.3L687.1,90.9z
					 M685.5,87.8c0.8,0.6,1.5,1.5,2,2.2c15.2-6.9,24.8-19.7,28.5-37.9l0.3-1.3l0.4,1.2c5.7,18.4,15.6,31.5,28.7,37.9
					c0.6-0.9,1.3-1.9,2-2.6c-12.8-5.8-22.8-18.5-28.1-36.1l-0.1-0.4h27.6v-2.7h-29.9l0.1-0.4c1.2-7.7,1.3-15,1.3-20.3h-2.8v0.8
					c-0.1,5.1-0.1,12.2-1.3,19.6v0.3h-27.5v2.7h27.1l-0.1,0.4C709.5,69.3,700.5,81.3,685.5,87.8z"/>
			</g>
			<g>
				<path class="st0" d="M793,28.1c-0.3,0.4-0.7,0.9-1,1.3c6.7,6.9,19.3,13.1,30.2,15.8c-0.8,0.6-1.7,1.8-2.2,2.7
					c-5.7-1.6-12-4.2-17.7-7.4v2.3h-24.2v-2.2c-5.5,3.2-11.6,5.8-17.6,7.8c-0.4-0.6-1.5-2-2.2-2.7c12.6-3.6,25.1-10,31.8-18.7
					L793,28.1z M766.9,47.1H813v16.8h-46.1V47.1z M769.9,61.2h18.3V49.7h-18.3V61.2z M771,67.8h38.4v22.3H806v-2.3h-31.7v2.7H771
					V67.8z M774.4,70.5v5.9H806v-5.9H774.4z M806,85v-5.9h-31.7V85H806z M777.8,51.1c2.1,2.5,4.2,5.8,5,8.2l-2.7,1.2
					c-0.7-2.3-2.8-5.8-4.8-8.3L777.8,51.1z M801.5,40.1c-4.3-2.5-8.4-5.4-11.5-8.5c-3.2,3.3-6.9,6.1-11.1,8.5H801.5z M809.8,49.7
					h-18.5v11.5h18.5V49.7z M797,59.5c1.5-2.4,3.5-6.2,4.6-8.7l2.9,1.3c-1.6,3-3.6,6.3-5.1,8.5L797,59.5z"/>
				<path class="st0" d="M774.8,90.8h-4V67.5h39.1v23h-4.1v-2.4h-31V90.8z M771.5,90.1h2.6v-2.7h32.4v2.4h2.8V68.1h-37.8V90.1z
					 M806.5,85.4H774v-6.6h32.4V85.4z M774.8,84.7h31v-5.2h-31V84.7z M806.5,76.8H774v-6.5h32.4V76.8z M774.8,76.1h31v-5.2h-31V76.1
					z M813.3,64.2h-46.8V46.8h46.7v17.4H813.3z M767.1,63.6h45.4V47.5h-45.4V63.6z M810,61.6H791V49.5H810V61.6z M799.5,60.9h9.9
					V50.1h-17.8v10.8H799.5l-3.1-1.3l0.2-0.3c1.4-2.3,3.4-6.1,4.6-8.6l0.1-0.3l3.6,1.5l-0.2,0.3c-1.7,3.2-3.7,6.4-5.1,8.5
					L799.5,60.9z M797.4,59.3l1.9,0.8c1.4-2,3.2-4.9,4.8-7.9l-2.3-1C800.5,53.7,798.8,57.1,797.4,59.3z M788.5,61.6h-19V49.5h19
					V61.6z M779.8,60.9h8.1V50.1h-17.7v10.8H779.8l-0.1-0.3c-0.6-2.1-2.7-5.6-4.8-8.2l-0.3-0.3l3.2-1.3l0.2,0.2
					c2.3,2.8,4.3,6.1,5,8.3l0.1,0.3L779.8,60.9z M775.6,52.3c2,2.5,3.8,5.6,4.5,7.7l2.1-0.9c-0.8-2.1-2.5-5-4.7-7.6L775.6,52.3z
					 M760.1,48.8l-0.1-0.2c-0.4-0.6-1.5-2-2.1-2.6l-0.4-0.4l0.5-0.2c14.2-4.1,25.7-10.9,31.6-18.6l0.1-0.2l3.7,1.3l-0.3,0.4
					c-0.2,0.2-0.3,0.4-0.5,0.7c-0.1,0.1-0.2,0.3-0.3,0.4c6.3,6.4,18.3,12.6,29.8,15.5l0.7,0.2l-0.6,0.4c-0.8,0.6-1.6,1.7-2.1,2.6
					l-0.1,0.2l-0.2-0.1c-5.8-1.6-11.9-4.2-17.3-7.2v2.1h-24.9v-1.9c-5.1,2.9-10.9,5.5-17.2,7.5L760.1,48.8z M758.8,45.9
					c0.6,0.6,1.3,1.5,1.7,2.1c6.4-2.1,12.2-4.7,17.3-7.7l0.5-0.3l0,0l0.5-0.3c4.5-2.6,8.1-5.4,11-8.5L790,31l0.2,0.2
					c2.8,2.9,6.6,5.7,11.4,8.5l1.1,0.6l0,0c5.3,3,11.3,5.5,17,7.1c0.3-0.5,0.9-1.4,1.6-2.1c-11.6-3-23.5-9.3-29.7-15.8l-0.2-0.2
					l0.2-0.2c0.2-0.2,0.3-0.4,0.5-0.7c0.1-0.1,0.2-0.2,0.2-0.3l-2.3-0.8C784,35.1,772.8,41.8,758.8,45.9z M778.3,42.5h23.6v-2.1
					h-23.6V42.5z M780.1,39.8h20.1c-4.2-2.5-7.7-5.1-10.3-7.7C787.3,34.8,784,37.3,780.1,39.8z"/>
			</g>
			<g>
				<path class="st0" d="M869.8,51.5c-3.9,2.9-8.1,5.7-12.4,8.2h30v2.9H856c-1,2.7-2.3,5.6-3.4,8.1h30.6l-0.2,1.7
					c-1.5,9.9-2.8,14.2-5,16c-1.3,1.1-2.6,1.4-5,1.5c-2.3,0-7.3,0-12.7-0.4c-0.1-1-0.4-2.2-1-3.2c5.4,0.5,11.1,0.6,12.8,0.6
					c1.8,0,2.7-0.1,3.4-0.6c1.7-1.2,2.8-4.7,4-12.5h-31.7c1.6-3.1,3.4-7.5,4.9-11.3c-6.2,3.4-12.8,6.4-19.4,9
					c-0.4-0.8-1.2-2.2-1.9-2.9c11.7-4.2,23-10,33.1-16.9h-31.2v-3.1h25.1v-9.5h-18.8v-3h18.8v-8.9h3.4v8.9h15.8v3h-15.8v9.5h6.9
					c7.2-5.3,13.6-11.3,18.8-17.8l2.8,1.6c-4.8,5.8-10.4,11.3-16.5,16.2h19.9v3.1h-23.9V51.5z"/>
				<path class="st0" d="M873,90.1c-2.4,0-7.3,0-12.6-0.4H860v-0.3c-0.1-1.1-0.5-2.2-1-3l-0.4-0.6l0.7,0.1c6,0.5,12.1,0.6,12.8,0.6
					c1.7,0,2.6-0.1,3.2-0.5c1.6-1.1,2.7-4.6,3.8-11.9h-31.9l0.3-0.5c1.5-2.8,3.1-6.8,4.5-10.5c-5.7,3.1-12,6-18.6,8.6l-0.3,0.1
					l-0.1-0.3c-0.3-0.8-1.2-2.2-1.8-2.8l-0.4-0.4l0.5-0.2c11.3-4,22.1-9.5,32.1-16.3H833v-3.7h25.1v-8.8h-18.7v-3.7h18.8v-8.9h4v8.9
					h15.8v3.7h-15.8v8.8h6.5c7.2-5.3,13.5-11.3,18.6-17.7l0.2-0.2l3.4,1.9l-0.3,0.3c-4.7,5.7-10.1,11-15.8,15.6h19.3v3.7H870
					c-3.7,2.7-7.5,5.3-11.3,7.5h29.2v3.6h-31.5c-0.9,2.2-1.9,4.6-2.8,6.7l-0.3,0.7h30.5l-0.3,2.1c-1.5,10.1-2.8,14.4-5.1,16.2
					c-1.5,1.2-2.9,1.5-5.2,1.5C873,90.1,873,90.1,873,90.1z M860.8,89.1c5.3,0.4,10,0.4,12.4,0.4c2.5-0.1,3.6-0.4,4.8-1.4
					c2.1-1.7,3.4-5.9,4.9-15.8l0.2-1.3h-30.7l0.7-1.6c0.9-2.1,2-4.6,2.8-6.9l0.1-0.2h31.3V60h-30.9l1-0.6c4.1-2.4,8.3-5.2,12.4-8.2
					l0.1-0.1h23.7v-2.4h-20.5l0.7-0.6c5.9-4.7,11.4-10,16.2-15.8l-2.2-1.3c-5.2,6.4-11.4,12.3-18.6,17.6l-0.1,0.1h-7.4V38.6h15.8
					v-2.3h-15.8v-8.9H859v8.9h-18.8v2.3H859v10.1h-25.1v2.4h31.9l-0.9,0.6c-10.2,7-21.2,12.6-32.7,16.8c0.6,0.7,1.1,1.7,1.5,2.4
					c6.8-2.7,13.3-5.7,19.1-8.9l0.8-0.4l-0.5,1.3c-1.4,3.5-3,7.5-4.5,10.5h31.6l-0.1,0.4c-1.2,8-2.3,11.5-4.1,12.8
					c-0.8,0.5-1.7,0.6-3.6,0.6c-0.7,0-6.4,0-12.2-0.5C860.4,87.4,860.6,88.3,860.8,89.1z"/>
			</g>
		</g>
		<g>
			<g>
				<path class="st1" d="M383,63.9c0,13.9-11.3,25.3-25.2,25.3S332.5,77.9,332.5,64s11.3-25.3,25.2-25.3
					C371.5,38.7,383,49.9,383,63.9z"/>
			</g>
			<g>
				<path class="st0" d="M357.7,90.6c-14.6,0-26.6-11.9-26.6-26.6c0-14.7,11.9-26.6,26.6-26.7c14.7,0,26.6,11.9,26.7,26.6
					C384.4,78.6,372.5,90.5,357.7,90.6L357.7,90.6z M357.7,40.1c-13.2,0-23.9,10.8-23.9,23.9c0,13.1,10.7,23.8,23.9,23.8v1.4
					l0.1-1.4c13.2,0,23.9-10.8,23.8-23.9C381.5,50.7,370.9,40.1,357.7,40.1z"/>
			</g>
			<g>
				<path class="st0" d="M360.9,31.7c0,0.4-0.4,0.8-0.8,0.8h-4.9c-0.4,0-0.8-0.4-0.8-0.8v-2.5c0-0.4,0.4-0.8,0.8-0.8h4.9
					c0.4,0,0.8,0.4,0.8,0.8V31.7z"/>
			</g>
			<g>
				
					<rect x="356.7" y="32.2" transform="matrix(1 -1.642793e-03 1.642793e-03 1 -5.660738e-02 0.5876)" class="st0" width="2" height="5.2"/>
			</g>
			<g>
				<path class="st0" d="M357.5,37c-4,0-7.2-3.2-7.2-7.2s3.2-7.2,7.2-7.2s7.2,3.2,7.2,7.2C364.8,33.7,361.5,37,357.5,37L357.5,37z
					 M357.5,24c-3.2,0-5.8,2.6-5.8,5.8c0,3.2,2.6,5.8,5.8,5.8v0.7v-0.7c3.2,0,5.8-2.6,5.8-5.8C363.4,26.6,360.8,24,357.5,24z"/>
			</g>
			<g>
				<path class="st0" d="M361.7,64c0,2.2-1.8,4-4,4s-4-1.8-4-4s1.8-4,4-4S361.7,61.8,361.7,64z"/>
			</g>
			<g>
				<polygon class="st0" points="370.2,52.2 360.9,63.1 359.2,61.3 				"/>
			</g>
			<g>
				<path class="st0" d="M376.4,64.5c-0.4,0-0.7-0.3-0.7-0.7l0,0c0-0.4,0.3-0.7,0.7-0.7h2.9c0.4,0,0.7,0.3,0.7,0.7l0,0
					c0,0.4-0.3,0.7-0.7,0.7H376.4z"/>
			</g>
			<g>
				<path class="st0" d="M335.7,64.5c-0.4,0-0.7-0.3-0.7-0.7l0,0c0-0.4,0.3-0.7,0.7-0.7h2.9c0.4,0,0.7,0.3,0.7,0.7l0,0
					c0,0.4-0.3,0.7-0.7,0.7H335.7z"/>
			</g>
			<g>
				<path class="st0" d="M358.2,44.9c0,0.4-0.3,0.7-0.7,0.7l0,0c-0.4,0-0.7-0.3-0.7-0.7V42c0-0.4,0.3-0.7,0.7-0.7l0,0
					c0.4,0,0.7,0.3,0.7,0.7V44.9z"/>
			</g>
			<g>
				<path class="st0" d="M358.2,85.7c0,0.4-0.3,0.7-0.7,0.7l0,0c-0.4,0-0.7-0.3-0.7-0.7v-2.9c0-0.4,0.3-0.7,0.7-0.7l0,0
					c0.4,0,0.7,0.3,0.7,0.7V85.7z"/>
			</g>
		</g>
		<g>
			<g>
				<g>
					<path class="st1" d="M77,80.3v2.2H35.8v-2.2h19.5v-5.4H40.9v-2.1h14.4v-5H38.8v-2.1h35.7v2.1H57.7v5h14.6v2.1H57.7v5.4H77z
						 M72.2,61.6H40.8V44.9h12.3c0.9-1.5,1.7-3.4,2.2-4.7l2.5,0.4c-0.7,1.5-1.5,3-2.3,4.3h16.6v16.7H72.2z M69.9,46.9H43.2v5.3h26.7
						V46.9z M69.9,54.2H43.2v5.4h26.7V54.2z"/>
				</g>
				<g>
					<path class="st1" d="M125.5,58.9c-2.3,2-5.3,4.1-8.1,6c2.4,6.9,7.5,12.6,13.8,15.1c-0.5,0.4-1.2,1.2-1.5,1.9
						c-6.4-2.8-11.4-8.6-14.1-15.8c-1,0.6-1.9,1.2-2.8,1.7c1.8,6.4,0.7,12.7-2.1,14.5c-1.3,1.1-2.5,1.4-4.5,1.4c-1,0-2.6,0-4.2-0.1
						c0-0.6-0.3-1.5-0.6-2.2c1.7,0.1,3.4,0.2,4.3,0.2c1.4,0,2.4-0.1,3.4-0.9c1.8-1.2,2.9-5.4,2.1-10.2c-5.4,4.4-14,8.7-21.2,10.8
						c-0.2-0.6-0.8-1.5-1.2-2c7.7-1.9,17.1-6.5,21.9-11.1c-0.4-1.4-0.9-2.9-1.6-4.3c-4.7,3.4-12.3,7-18.1,8.8
						c-0.3-0.5-0.8-1.4-1.2-1.9c6-1.5,14.2-5.3,18.4-8.5c-0.8-1.2-1.7-2.4-2.8-3.6c-4.4,2.5-9.6,4.7-14.3,6.1
						c-0.2-0.5-0.9-1.4-1.3-1.9c6.2-1.7,13.2-4.5,17.9-8H95.4v-2.1h28.2v2.1h-12.9c-1.1,1-2.3,1.9-3.6,2.7c2.5,2.4,4.2,5.3,5.3,8.2
						c3.8-2.4,8.5-5.8,11.4-8.4L125.5,58.9z M91.9,54.1h-2.3v-9.3h18.5c-0.6-1.3-1.4-2.9-2.2-4.1l2.3-0.7c1,1.4,2.1,3.4,2.6,4.8H129
						v9.3h-2.3V47H91.8v7.1H91.9z"/>
				</g>
				<g>
					<path class="st1" d="M158.2,54.7c-1.6-1.2-4.6-3.3-7.2-4.9c-1.7,2.6-4.6,4.3-9.4,5.5c-0.2-0.5-0.8-1.3-1.2-1.7
						c8.5-1.9,10.5-5.4,10.9-13.2h2.1c-0.2,3.1-0.6,5.7-1.5,7.7c2.7,1.6,6,3.8,7.8,5.1L158.2,54.7z M145.9,47.6
						c-0.8-1.2-2.4-3.3-3.7-4.8l1.4-1.1c1.4,1.4,3.1,3.5,3.8,4.6L145.9,47.6z M142.4,55.8h39.4v8.3h-2.3v-6.3h-34.9v6.3h-2.2
						L142.4,55.8L142.4,55.8z M160.4,69.6c-0.5,1.1-1.1,2.3-1.5,3.3h19.9v10.9h-2.3v-1.5h-28v1.5h-2.2V72.9h10.5
						c0.4-1,0.9-2.2,1.3-3.3h-8.8V61H175v8.6H160.4z M176.5,74.9h-28v5.5h28V74.9z M151.5,67.8h21.4v-4.9h-21.4V67.8z M161,43.7
						c-1.4,1.7-3,3.6-4.3,4.8l-1.5-0.8c1.3-1.3,3-3.5,3.8-4.9L161,43.7z M180.9,55.7c-2.2-1.7-6.3-4.2-9.9-6.1
						c-1.7,2.5-4.5,4.2-8.9,5.3c-0.2-0.4-0.8-1.3-1.3-1.7c8-2,10-5.6,10.6-12.8h2.2c-0.2,3-0.7,5.4-1.6,7.4c3.6,1.9,8,4.5,10.3,6.3
						L180.9,55.7z M166.2,47.3c-0.8-1.3-2.4-3.4-3.7-4.8l1.4-1.1c1.4,1.5,3,3.5,3.8,4.6L166.2,47.3z M182,43.6
						c-1.5,1.8-3.4,3.7-4.8,5l-1.5-0.9c1.4-1.3,3.3-3.6,4.3-5.1L182,43.6z"/>
				</g>
				<g>
					<path class="st1" d="M223.5,57.2c3.2,3.8,8.4,7.1,13.4,8.6c-0.5,0.4-1.2,1.2-1.5,1.8c-5.4-1.9-11.1-5.9-14.3-10.4H209
						c-3.6,4.7-9.2,8.6-14.5,11.1c-0.3-0.4-1.2-1.2-1.7-1.7c5.1-2.2,10.2-5.5,13.5-9.5h-12.5v-1.9h19.9v-3.1h-14.2v-1.8h14.2v-2.9
						h-16.9v-1.9h9.7c-0.9-1.4-2.2-3.2-3.2-4.6l2-0.8c1.4,1.7,3,4,3.8,5.4h11.7c1.1-1.5,2.5-3.9,3.3-5.5l2.3,0.8
						c-0.9,1.6-2.1,3.3-3.1,4.7h9.7v1.9h-17v2.9h14.3v1.8H216v3.1h20.1v1.9h-12.6V57.2z M213.5,78.1c0,0.6,0.1,1.5,0.2,1.9
						c-9.7,2.8-11,3.2-11.7,3.7c-0.2-0.6-0.7-1.6-1.1-2.1c0.6-0.3,1.6-0.9,1.6-2.6V64h24.1v10.8h-21.7v5.6L213.5,78.1z M205,65.7
						v2.7h19.4v-2.7H205z M224.4,73.1v-2.9H205v2.9H224.4z M221.5,59.7v1.6h-13.8v-1.6H221.5z M233.2,74.7c-2.4,1.4-5.8,2.9-8.7,4
						c3.3,1.2,6.4,2.4,8.6,3.4l-1,1.8c-4.3-1.9-12.5-5.1-18.7-7.2l1-1.5c2.4,0.8,5.1,1.7,7.8,2.6c3.1-1.2,7.1-3.2,9.5-4.6
						L233.2,74.7z"/>
				</g>
				<g>
					<path class="st1" d="M288.9,74h-19.8v6.9c0,1.5-0.4,2.1-1.6,2.4c-1.2,0.4-3.6,0.3-7.5,0.3c-0.1-0.6-0.5-1.3-0.8-2
						c3.3,0.1,6,0.1,6.6,0c0.8,0,1-0.2,1-0.9v-6.9h-20.3v-2.1H267v-2.5c3.1-1,6.6-2.5,9.2-4.1h-20.9v-1.9h23.6l0.5-0.1l1.4,1.2
						c-3,2.4-7.5,4.6-11.5,6v1.5H289V74H288.9z M249.9,65.5h-2.2v-8.2h3.9l-1-14.4c2.7-0.4,6.7-1.5,9.1-2.2l1.2,1.5
						c-2.2,0.8-5.3,1.4-7.9,1.9l0.2,3h7.5v1.8h-7.3l0.2,3.2h7.4v1.8h-7.3l0.2,3.3h27.9c0.1-1,0.2-2.1,0.4-3.3h-7.7v-1.8h7.9
						c0.1-1.1,0.2-2.1,0.2-3.2h-7.9v-1.8h8c0-1.1,0.1-2.1,0.2-3.1h-8.4v-1.9h10.7c-0.2,4.7-0.7,10.9-1.1,15.1h3.8v8.2h-2.4v-6.2
						h-35.6V65.5z M271.7,56.9c-1-0.9-2.3-2-3.8-3c-1.7,1.3-3.4,2.4-5,3.4c-0.3-0.3-1.1-1.1-1.5-1.3c1.7-0.8,3.4-1.8,4.9-3
						c-1.2-0.8-2.6-1.5-3.9-2.2l1.3-1.2c1.3,0.6,2.7,1.3,4.1,2.1c1-0.9,2-1.8,2.6-2.8l1.9,0.6c-0.9,1.1-1.9,2.2-3,3.2
						c1.5,1,2.9,2,3.7,2.9L271.7,56.9z M271.7,48.4c-0.9-0.8-2.3-1.8-3.8-2.7c-1.6,1.2-3.2,2.4-4.8,3.2c-0.3-0.3-1.1-1-1.5-1.3
						c1.6-0.8,3.2-1.8,4.7-2.8c-1.2-0.7-2.5-1.4-3.8-1.9l1.2-1.2c1.3,0.6,2.6,1.2,4,1.9c1-0.8,1.8-1.7,2.5-2.6l1.8,0.5
						c-0.8,1.1-1.7,2.1-2.8,3.1c1.5,0.9,2.8,1.8,3.7,2.6L271.7,48.4z"/>
				</g>
			</g>
			<g>
				<g>
					<path class="st0" d="M519.3,15.6c1.3-0.7,2.5-1.5,3.8-2c2-0.8,3.9-0.3,5.3,1.3c2,2.3,3.7,4.8,4.6,7.8c0.4,1.3,0.5,2.7-0.6,3.7
						c-1.3,1.3-2.9,1.7-4.7,0.8c-0.8-0.4-1.6-0.8-2.2-1.5c-1.6-1.7-3.3-2-5.3-1c-0.6,0.3-1.3,0.5-2,0.6c-2.3,0.5-4.1-1.1-3.9-3.5
						c0.2-2,1.3-3.4,2.8-4.6c0.7-0.6,1.6-1.1,2.4-1.6C519.3,15.7,519.3,15.7,519.3,15.6z"/>
				</g>
				<g>
					<path class="st0" d="M525.6,4c1,1.6,0.6,5.7-0.8,7c-1.2,1.2-3.8,0.6-4.5-1.1c-0.8-2-0.2-4.8,1.4-6.2C523,2.4,524.6,2.5,525.6,4
						z"/>
				</g>
				<g>
					<path class="st0" d="M532.9,5.8c1,1.4,0.9,2.7,0.7,3.9c-0.1,0.7-0.4,1.4-0.6,2.1c-0.3,1.1-1.1,1.7-2.3,1.7
						c-1.3,0-2.5-0.6-2.9-1.7c-0.8-2.1-0.1-5,1.7-6.5C530.6,4.4,532,4.7,532.9,5.8z"/>
				</g>
				<g>
					<path class="st0" d="M517.8,8.7c0.3,0.7,0.6,1.4,0.8,2.1c0.5,1.7,0,2.7-1.5,3.1c-1.8,0.5-3.6-0.4-4-1.9c-0.4-1.6,0.1-3,1.2-4.1
						c1-1.1,2-1,2.9,0.2c0.2,0.2,0.3,0.5,0.5,0.8C517.8,8.7,517.8,8.7,517.8,8.7z"/>
				</g>
				<g>
					<path class="st0" d="M533,18.4c-1.2-1.8-0.1-4.6,2-5.2c1.4-0.3,2.4,0.3,2.5,1.7c0,1,0,2-0.3,2.9c-0.3,0.7-1.1,1.6-1.8,1.8
						c-0.7,0.1-1.6-0.6-2.5-0.9C533,18.6,533,18.5,533,18.4z"/>
				</g>
			</g>
			<g id="g7SFRH_00000139255823105404727010000004138635407636149948_">
				<g>
					<path class="st0" d="M401,93.4c0.4,0,1.3,0,2.1,0.2c0.7,0.2,1.3,0.5,2,0.8c1.6,0.6,3.2,1,4.9,1c0.9,0,1.7,0.4,2.1,1.3
						c0.4,1,0.1,1.8-0.5,2.5c-1,1.2-2.2,2.1-3.6,2.8c-1.4,0.8-2.4,1.8-3.5,2.9c-0.7,0.8-1.5,1.4-2.3,2c-0.9,0.6-1.9,0.5-2.8-0.1
						c-0.9-0.5-1.4-1.3-1.3-2.4c0.1-0.7,0.2-1.3,0.4-2c0.6-1.6,0.7-3.3,0.6-5c-0.1-0.7,0-1.5,0-2.2C399.2,94.5,399.7,93.9,401,93.4z
						"/>
				</g>
				<g>
					<path class="st0" d="M409,89c0.1,0.3,0.2,0.7,0.2,1.2c0.2,1.4-0.9,2.5-2.3,2.3c-1.7-0.2-3.4-2.1-3.5-4c0-1.1,0.2-2.2,0.5-3.3
						c0.3-1.2,1.2-1.4,2.1-0.6C407.4,85.8,408.4,87.2,409,89z"/>
				</g>
				<g>
					<path class="st0" d="M400.2,86.1c0,0.8,0.2,1.6,0.1,2.4c-0.1,0.9-0.8,1.3-1.6,1.2c-1.7-0.2-4-2.3-4.3-4
						c-0.1-0.3-0.1-0.6-0.1-0.8c0.2-1.8,1.4-2.5,3.1-1.8C398.5,83.6,399.5,84.7,400.2,86.1z"/>
				</g>
				<g>
					<path class="st0" d="M396.7,99.9c0.3,1-0.1,1.9-1,2.2c-0.4,0.1-0.9,0.2-1.4,0.1c-1.8-0.3-3.3-1.1-4.6-2.4
						c-0.5-0.5-0.7-1.2-0.4-1.9s0.9-1.1,1.5-1c1,0.2,2.1,0.4,3,0.9c0.8,0.3,1.5,0.9,2.1,1.4C396.4,99.4,396.5,99.8,396.7,99.9z"/>
				</g>
				<g>
					<path class="st0" d="M388.5,90.5c-0.4-1.4,0.8-2.8,2.2-2.5c2,0.4,3.5,1.5,4.4,3.2c0.3,0.6,0.4,1.3-0.1,1.9
						c-0.4,0.7-1,0.9-1.7,0.6c-1.2-0.6-2.5-1.2-3.6-1.9C389.2,91.5,388.9,90.9,388.5,90.5z"/>
				</g>
				<g>
					<path class="st0" d="M391.8,79.5c0.9,0.3,1.9,0.6,2.6,1.4c0.4,0.4,0.1,1.1-0.5,1.6c-0.5,0.4-0.8,0.1-1-0.3
						c-0.4-0.8-0.8-1.6-1.2-2.4C391.7,79.6,391.8,79.6,391.8,79.5z"/>
				</g>
				<g>
					<path class="st0" d="M387,84.5c0.5,0.5,1,1,1.5,1.5c0.4,0.5,0.2,1.1-0.3,1.3c-0.6,0.3-1-0.1-1.1-0.6c-0.2-0.7-0.2-1.4-0.3-2.1
						C386.8,84.6,386.9,84.5,387,84.5z"/>
				</g>
				<g>
					<path class="st0" d="M386.4,94.4c0.6,0.5,1.3,0.9,1.8,1.5c0.4,0.4,0.3,0.9-0.1,1.2c-0.2,0.1-0.7-0.2-0.9-0.4
						c-0.4-0.6-0.7-1.3-1.1-2C386.2,94.5,386.2,94.4,386.4,94.4z"/>
				</g>
				<g>
					<path class="st0" d="M403,81.2c0.4,0.3,0.8,0.6,1.2,0.9c0.1,0.1,0.1,0.5,0.1,0.7c-0.3,0-0.7,0.1-0.8,0c-0.3-0.5-0.5-1-0.7-1.5
						C402.8,81.3,402.9,81.2,403,81.2z"/>
				</g>
			</g>
		</g>
	</g>
</g>
</svg>
